<svg width="26" height="26" viewBox="0 0 26 26" fill="none" xmlns="http://www.w3.org/2000/svg">
<path d="M23.742 17.4941H6.2479C5.91649 17.4941 5.59866 17.3625 5.36432 17.1281C5.12997 16.8938 4.99832 16.576 4.99832 16.2445C4.99832 15.9131 5.12997 15.5953 5.36432 15.361C5.59866 15.1266 5.91649 14.995 6.2479 14.995H19.2935C20.1291 14.995 20.9407 14.7159 21.5995 14.202C22.2583 13.6881 22.7265 12.9688 22.9298 12.1584L24.9916 4.04864C25.0384 3.86421 25.0425 3.67153 25.0035 3.48529C24.9645 3.29906 24.8835 3.12418 24.7667 2.974C24.6452 2.81997 24.4891 2.69672 24.3111 2.61422C24.133 2.53173 23.9381 2.49231 23.742 2.49916H5.948C5.6902 1.76997 5.21316 1.13837 4.58229 0.690941C3.95142 0.243516 3.19761 0.00217366 2.42419 0H1.24958C0.918171 0 0.600335 0.131652 0.365994 0.365994C0.131652 0.600335 0 0.918171 0 1.24958C0 1.58099 0.131652 1.89883 0.365994 2.13317C0.600335 2.36751 0.918171 2.49916 1.24958 2.49916H2.42419C2.70963 2.49084 2.98932 2.58055 3.21668 2.75334C3.44404 2.92613 3.60535 3.17159 3.67377 3.44884L3.74874 4.04864L5.91052 12.4958C4.91629 12.5405 3.98055 12.9784 3.30916 13.7131C2.63778 14.4477 2.28573 15.419 2.33047 16.4132C2.37521 17.4075 2.81307 18.3432 3.54773 19.0146C4.28239 19.686 5.25367 20.038 6.2479 19.9933H6.47283C6.26732 20.5595 6.20128 21.1669 6.28031 21.7641C6.35933 22.3612 6.5811 22.9306 6.92682 23.4238C7.27255 23.9171 7.73205 24.3198 8.26642 24.5978C8.80078 24.8758 9.39428 25.021 9.99664 25.021C10.599 25.021 11.1925 24.8758 11.7269 24.5978C12.2612 24.3198 12.7207 23.9171 13.0665 23.4238C13.4122 22.9306 13.634 22.3612 13.713 21.7641C13.792 21.1669 13.726 20.5595 13.5205 19.9933H16.4695C16.264 20.5595 16.1979 21.1669 16.277 21.7641C16.356 22.3612 16.5777 22.9306 16.9235 23.4238C17.2692 23.9171 17.7287 24.3198 18.2631 24.5978C18.7974 24.8758 19.3909 25.021 19.9933 25.021C20.5957 25.021 21.1892 24.8758 21.7235 24.5978C22.2579 24.3198 22.7174 23.9171 23.0631 23.4238C23.4088 22.9306 23.6306 22.3612 23.7096 21.7641C23.7887 21.1669 23.7226 20.5595 23.5171 19.9933H23.742C24.0734 19.9933 24.3913 19.8616 24.6256 19.6273C24.86 19.3929 24.9916 19.0751 24.9916 18.7437C24.9916 18.4123 24.86 18.0945 24.6256 17.8601C24.3913 17.6258 24.0734 17.4941 23.742 17.4941ZM22.1426 4.99832L20.5056 11.5461C20.4372 11.8234 20.2759 12.0688 20.0485 12.2416C19.8212 12.4144 19.5415 12.5041 19.256 12.4958H8.47216L6.59779 4.99832H22.1426ZM9.99664 22.4924C9.7495 22.4924 9.50791 22.4192 9.30241 22.2819C9.09692 22.1445 8.93676 21.9494 8.84218 21.7211C8.74761 21.4927 8.72286 21.2415 8.77107 20.9991C8.81929 20.7567 8.9383 20.534 9.11306 20.3593C9.28782 20.1845 9.51047 20.0655 9.75286 20.0173C9.99526 19.9691 10.2465 19.9938 10.4748 20.0884C10.7032 20.183 10.8983 20.3431 11.0356 20.5486C11.1729 20.7541 11.2462 20.9957 11.2462 21.2429C11.2462 21.5743 11.1146 21.8921 10.8802 22.1265C10.6459 22.3608 10.3281 22.4924 9.99664 22.4924ZM19.9933 22.4924C19.7461 22.4924 19.5046 22.4192 19.2991 22.2819C19.0936 22.1445 18.9334 21.9494 18.8388 21.7211C18.7442 21.4927 18.7195 21.2415 18.7677 20.9991C18.8159 20.7567 18.9349 20.534 19.1097 20.3593C19.2845 20.1845 19.5071 20.0655 19.7495 20.0173C19.9919 19.9691 20.2432 19.9938 20.4715 20.0884C20.6998 20.183 20.895 20.3431 21.0323 20.5486C21.1696 20.7541 21.2429 20.9957 21.2429 21.2429C21.2429 21.5743 21.1112 21.8921 20.8769 22.1265C20.6425 22.3608 20.3247 22.4924 19.9933 22.4924Z" fill="white"/>
</svg>
