<svg width="41" height="41" viewBox="0 0 41 41" fill="none" xmlns="http://www.w3.org/2000/svg">
<path fill-rule="evenodd" clip-rule="evenodd" d="M3.28314 4.35873C2.81817 4.35873 2.44124 4.73293 2.44124 5.19453C2.44124 5.65612 2.81817 6.03032 3.28314 6.03032H5.52755C6.70726 6.03032 7.72984 6.84107 7.99071 7.98323L12.1463 26.1776C12.5811 28.0812 14.2854 29.4325 16.2516 29.4325H33.0319C33.7863 29.4325 34.4485 28.9344 34.6528 28.2135L36.9124 20.2388H18.4374C17.9758 20.2388 17.6016 19.8646 17.6016 19.403C17.6016 18.9414 17.9758 18.5672 18.4374 18.5672H37.3859L39.1521 12.3335C39.4543 11.2671 38.647 10.2093 37.5313 10.2093H10.2256L9.63281 7.6136C9.19803 5.70998 7.49374 4.35873 5.52755 4.35873H3.28314ZM18.3213 34.4472C18.3213 35.3704 17.5729 36.1188 16.6497 36.1188C15.7265 36.1188 14.9781 35.3704 14.9781 34.4472C14.9781 33.524 15.7265 32.7756 16.6497 32.7756C17.5729 32.7756 18.3213 33.524 18.3213 34.4472ZM30.0224 36.1188C30.9456 36.1188 31.6939 35.3704 31.6939 34.4472C31.6939 33.524 30.9456 32.7756 30.0224 32.7756C29.0991 32.7756 28.3508 33.524 28.3508 34.4472C28.3508 35.3704 29.0991 36.1188 30.0224 36.1188Z" fill="#FD0015"/>
</svg>
