<svg width="50" height="56" viewBox="0 0 50 56" fill="none" xmlns="http://www.w3.org/2000/svg">
<path d="M13.8889 27.7778H19.4444C20.1812 27.7778 20.8877 27.4851 21.4086 26.9642C21.9296 26.4432 22.2222 25.7367 22.2222 25C22.2222 24.2633 21.9296 23.5567 21.4086 23.0358C20.8877 22.5149 20.1812 22.2222 19.4444 22.2222H13.8889C13.1522 22.2222 12.4456 22.5149 11.9247 23.0358C11.4038 23.5567 11.1111 24.2633 11.1111 25C11.1111 25.7367 11.4038 26.4432 11.9247 26.9642C12.4456 27.4851 13.1522 27.7778 13.8889 27.7778ZM38.8889 11.1111H25V5.55555H27.7778C28.5145 5.55555 29.221 5.2629 29.742 4.74196C30.2629 4.22103 30.5556 3.51449 30.5556 2.77778C30.5556 2.04106 30.2629 1.33453 29.742 0.813592C29.221 0.292658 28.5145 0 27.7778 0H22.2222C21.4855 0 20.779 0.292658 20.258 0.813592C19.7371 1.33453 19.4444 2.04106 19.4444 2.77778V11.1111H11.1111C8.16426 11.1111 5.33811 12.2817 3.25437 14.3655C1.17063 16.4492 0 19.2754 0 22.2222V38.8889C0 39.6256 0.292658 40.3321 0.813592 40.8531C1.33453 41.374 2.04107 41.6667 2.77778 41.6667H19.4444V52.7778C19.4444 53.5145 19.7371 54.221 20.258 54.742C20.779 55.2629 21.4855 55.5555 22.2222 55.5555C22.9589 55.5555 23.6655 55.2629 24.1864 54.742C24.7073 54.221 25 53.5145 25 52.7778V41.6667H47.2222C47.9589 41.6667 48.6655 41.374 49.1864 40.8531C49.7073 40.3321 50 39.6256 50 38.8889V22.2222C50 19.2754 48.8294 16.4492 46.7456 14.3655C44.6619 12.2817 41.8357 11.1111 38.8889 11.1111ZM27.7778 22.2222V36.1111H5.55556V22.2222C5.55556 20.7488 6.14087 19.3357 7.18274 18.2938C8.22461 17.252 9.63769 16.6667 11.1111 16.6667H29.3333C28.3235 18.3444 27.786 20.264 27.7778 22.2222ZM44.4444 36.1111H33.3333V22.2222C33.3333 20.7488 33.9186 19.3357 34.9605 18.2938C36.0024 17.252 37.4155 16.6667 38.8889 16.6667C40.3623 16.6667 41.7754 17.252 42.8173 18.2938C43.8591 19.3357 44.4444 20.7488 44.4444 22.2222V36.1111Z" fill="white"/>
</svg>
