<svg width="15" height="18" viewBox="0 0 15 18" fill="none" xmlns="http://www.w3.org/2000/svg">
<path d="M4.57241 7.01322H5.47366C5.71269 7.01322 5.94192 6.92086 6.11094 6.75645C6.27996 6.59205 6.37491 6.36907 6.37491 6.13657C6.37491 5.90406 6.27996 5.68108 6.11094 5.51668C5.94192 5.35228 5.71269 5.25991 5.47366 5.25991H4.57241C4.33339 5.25991 4.10415 5.35228 3.93513 5.51668C3.76612 5.68108 3.67116 5.90406 3.67116 6.13657C3.67116 6.36907 3.76612 6.59205 3.93513 6.75645C4.10415 6.92086 4.33339 7.01322 4.57241 7.01322V7.01322ZM4.57241 8.76652C4.33339 8.76652 4.10415 8.85889 3.93513 9.02329C3.76612 9.18769 3.67116 9.41067 3.67116 9.64318C3.67116 9.87568 3.76612 10.0987 3.93513 10.2631C4.10415 10.4275 4.33339 10.5198 4.57241 10.5198H9.97991C10.2189 10.5198 10.4482 10.4275 10.6172 10.2631C10.7862 10.0987 10.8812 9.87568 10.8812 9.64318C10.8812 9.41067 10.7862 9.18769 10.6172 9.02329C10.4482 8.85889 10.2189 8.76652 9.97991 8.76652H4.57241ZM14.4862 6.08397C14.4768 6.00343 14.4586 5.92409 14.4321 5.84727V5.76837C14.3888 5.67824 14.331 5.59538 14.2608 5.52291V5.52291L8.85335 0.262996C8.77885 0.194806 8.69367 0.138582 8.601 0.0964317C8.5741 0.0927148 8.54679 0.0927148 8.51989 0.0964317C8.42833 0.0453591 8.32722 0.0125749 8.22247 0H2.76991C2.05283 0 1.36512 0.277084 0.858072 0.770297C0.351021 1.26351 0.0661621 1.93245 0.0661621 2.62996V14.9031C0.0661621 15.6006 0.351021 16.2695 0.858072 16.7628C1.36512 17.256 2.05283 17.533 2.76991 17.533H11.7824C12.4995 17.533 13.1872 17.256 13.6943 16.7628C14.2013 16.2695 14.4862 15.6006 14.4862 14.9031V6.13657C14.4862 6.13657 14.4862 6.13657 14.4862 6.08397ZM9.07866 2.98938L11.4129 5.25991H9.97991C9.74089 5.25991 9.51165 5.16755 9.34263 5.00315C9.17362 4.83874 9.07866 4.61576 9.07866 4.38326V2.98938ZM12.6837 14.9031C12.6837 15.1356 12.5887 15.3586 12.4197 15.523C12.2507 15.6874 12.0214 15.7797 11.7824 15.7797H2.76991C2.53089 15.7797 2.30165 15.6874 2.13263 15.523C1.96362 15.3586 1.86866 15.1356 1.86866 14.9031V2.62996C1.86866 2.39745 1.96362 2.17447 2.13263 2.01007C2.30165 1.84567 2.53089 1.7533 2.76991 1.7533H7.27616V4.38326C7.27616 5.08077 7.56102 5.74971 8.06807 6.24292C8.57512 6.73614 9.26283 7.01322 9.97991 7.01322H12.6837V14.9031ZM9.97991 12.2731H4.57241C4.33339 12.2731 4.10415 12.3655 3.93513 12.5299C3.76612 12.6943 3.67116 12.9173 3.67116 13.1498C3.67116 13.3823 3.76612 13.6053 3.93513 13.7697C4.10415 13.9341 4.33339 14.0264 4.57241 14.0264H9.97991C10.2189 14.0264 10.4482 13.9341 10.6172 13.7697C10.7862 13.6053 10.8812 13.3823 10.8812 13.1498C10.8812 12.9173 10.7862 12.6943 10.6172 12.5299C10.4482 12.3655 10.2189 12.2731 9.97991 12.2731Z" fill="#323232"/>
</svg>
