<svg width="19" height="14" viewBox="0 0 19 14" fill="none" xmlns="http://www.w3.org/2000/svg">
<path d="M15.7864 3.2316H14.8581V2.4798C14.8581 1.88164 14.5647 1.30798 14.0425 0.885011C13.5202 0.462046 12.8119 0.224426 12.0733 0.224426H2.79046C2.05188 0.224426 1.34354 0.462046 0.821279 0.885011C0.299018 1.30798 0.00561523 1.88164 0.00561523 2.4798V11.5013C0.00561523 12.0995 0.299018 12.6731 0.821279 13.0961C1.34354 13.5191 2.05188 13.7567 2.79046 13.7567H15.7864C16.525 13.7567 17.2333 13.5191 17.7556 13.0961C18.2779 12.6731 18.5713 12.0995 18.5713 11.5013V5.48698C18.5713 4.88881 18.2779 4.31515 17.7556 3.89218C17.2333 3.46922 16.525 3.2316 15.7864 3.2316ZM2.79046 1.72801H12.0733C12.3195 1.72801 12.5556 1.80722 12.7297 1.94821C12.9038 2.0892 13.0016 2.28042 13.0016 2.4798V3.2316H2.79046C2.54427 3.2316 2.30816 3.15239 2.13407 3.0114C1.95998 2.87041 1.86218 2.67919 1.86218 2.4798C1.86218 2.28042 1.95998 2.0892 2.13407 1.94821C2.30816 1.80722 2.54427 1.72801 2.79046 1.72801ZM16.7147 9.24594H15.7864C15.5402 9.24594 15.3041 9.16673 15.13 9.02575C14.9559 8.88476 14.8581 8.69354 14.8581 8.49415C14.8581 8.29476 14.9559 8.10354 15.13 7.96255C15.3041 7.82156 15.5402 7.74235 15.7864 7.74235H16.7147V9.24594ZM16.7147 6.23877H15.7864C15.0478 6.23877 14.3395 6.47639 13.8172 6.89935C13.295 7.32232 13.0016 7.89598 13.0016 8.49415C13.0016 9.09231 13.295 9.66598 13.8172 10.0889C14.3395 10.5119 15.0478 10.7495 15.7864 10.7495H16.7147V11.5013C16.7147 11.7007 16.6169 11.8919 16.4428 12.0329C16.2687 12.1739 16.0326 12.2531 15.7864 12.2531H2.79046C2.54427 12.2531 2.30816 12.1739 2.13407 12.0329C1.95998 11.8919 1.86218 11.7007 1.86218 11.5013V4.60738C2.16041 4.69234 2.47432 4.73556 2.79046 4.73518H15.7864C16.0326 4.73518 16.2687 4.81439 16.4428 4.95538C16.6169 5.09637 16.7147 5.28759 16.7147 5.48698V6.23877Z" fill="#323232"/>
</svg>
