<svg width="12" height="12" viewBox="0 0 12 12" fill="none" xmlns="http://www.w3.org/2000/svg">
<path d="M10.3526 4.70586H3.20605L6.31322 1.61193C6.49053 1.43485 6.59013 1.19468 6.59013 0.944249C6.59013 0.693819 6.49053 0.453645 6.31322 0.276564C6.13592 0.0994832 5.89545 0 5.64471 0C5.39397 0 5.1535 0.0994832 4.9762 0.276564L0.26836 4.97857C0.182639 5.06801 0.115444 5.17347 0.0706303 5.2889C-0.0235434 5.51786 -0.0235434 5.77466 0.0706303 6.00361C0.115444 6.11905 0.182639 6.22451 0.26836 6.31394L4.9762 11.0159C5.06373 11.1041 5.16787 11.1741 5.28261 11.2218C5.39735 11.2695 5.52041 11.2941 5.64471 11.2941C5.76901 11.2941 5.89208 11.2695 6.00682 11.2218C6.12156 11.1741 6.22569 11.1041 6.31322 11.0159C6.40148 10.9285 6.47152 10.8245 6.51933 10.7099C6.56713 10.5953 6.59174 10.4724 6.59174 10.3483C6.59174 10.2241 6.56713 10.1012 6.51933 9.98661C6.47152 9.87201 6.40148 9.768 6.31322 9.68058L3.20605 6.58666H10.3526C10.6023 6.58666 10.8418 6.48758 11.0183 6.31122C11.1949 6.13486 11.2941 5.89567 11.2941 5.64626C11.2941 5.39685 11.1949 5.15765 11.0183 4.98129C10.8418 4.80493 10.6023 4.70586 10.3526 4.70586Z" fill="#323232"/>
</svg>
