<svg width="19" height="18" viewBox="0 0 19 18" fill="none" xmlns="http://www.w3.org/2000/svg">
<path d="M9.26781 0C7.46797 0.00331546 5.70796 0.514014 4.20217 1.46989C2.69638 2.42577 1.50978 3.78556 0.786928 5.38365C0.0640711 6.98174 -0.163851 8.74915 0.130923 10.4706C0.425697 12.192 1.23044 13.7932 2.44714 15.0791C3.31613 15.9924 4.3708 16.7212 5.54469 17.2197C6.71859 17.7182 7.98625 17.9756 9.26781 17.9756C10.5494 17.9756 11.817 17.7182 12.9909 17.2197C14.1648 16.7212 15.2195 15.9924 16.0885 15.0791C17.3052 13.7932 18.1099 12.192 18.4047 10.4706C18.6995 8.74915 18.4716 6.98174 17.7487 5.38365C17.0258 3.78556 15.8393 2.42577 14.3335 1.46989C12.8277 0.514014 11.0677 0.00331546 9.26781 0ZM9.26781 16.1948C7.34547 16.1919 5.4992 15.4662 4.11751 14.1704C4.537 13.1803 5.25061 12.3335 6.16766 11.7375C7.08471 11.1415 8.1638 10.8233 9.26781 10.8233C10.3718 10.8233 11.4509 11.1415 12.368 11.7375C13.285 12.3335 13.9986 13.1803 14.4181 14.1704C13.0364 15.4662 11.1902 16.1919 9.26781 16.1948ZM7.41185 7.19767C7.41185 6.84178 7.5207 6.49388 7.72464 6.19797C7.92857 5.90206 8.21843 5.67142 8.55757 5.53523C8.8967 5.39903 9.26987 5.3634 9.6299 5.43283C9.98992 5.50226 10.3206 5.67364 10.5802 5.92529C10.8397 6.17695 11.0165 6.49757 11.0881 6.84662C11.1597 7.19568 11.123 7.55748 10.9825 7.88628C10.842 8.21508 10.6041 8.49611 10.2989 8.69383C9.99372 8.89156 9.63489 8.99709 9.26781 8.99709C8.77558 8.99709 8.30351 8.80751 7.95545 8.47005C7.60739 8.1326 7.41185 7.67491 7.41185 7.19767ZM15.6802 12.5959C14.8511 11.221 13.575 10.1514 12.0518 9.55491C12.5243 9.03547 12.8321 8.39488 12.9384 7.71C13.0447 7.02512 12.9449 6.32506 12.651 5.69381C12.3571 5.06256 11.8816 4.52694 11.2815 4.15123C10.6813 3.77551 9.98217 3.57567 9.26781 3.57567C8.55346 3.57567 7.85428 3.77551 7.25418 4.15123C6.65407 4.52694 6.17853 5.06256 5.88462 5.69381C5.59071 6.32506 5.49091 7.02512 5.59721 7.71C5.7035 8.39488 6.01137 9.03547 6.48387 9.55491C4.96067 10.1514 3.68458 11.221 2.85546 12.5959C2.19468 11.5047 1.84555 10.2625 1.84395 8.99709C1.84395 7.08815 2.62611 5.25739 4.01835 3.90757C5.4106 2.55774 7.29888 1.79942 9.26781 1.79942C11.2367 1.79942 13.125 2.55774 14.5173 3.90757C15.9095 5.25739 16.6917 7.08815 16.6917 8.99709C16.6901 10.2625 16.341 11.5047 15.6802 12.5959Z" fill="#323232"/>
</svg>
