<svg width="7" height="11" viewBox="0 0 7 11" fill="none" xmlns="http://www.w3.org/2000/svg">
<path d="M1.28612 3.53837L3.00436 1.81263L4.7226 3.53837C4.79235 3.6087 4.87534 3.66452 4.96677 3.70261C5.0582 3.7407 5.15628 3.76031 5.25533 3.76031C5.35438 3.76031 5.45245 3.7407 5.54388 3.70261C5.63532 3.66452 5.7183 3.6087 5.78806 3.53837C5.85838 3.46862 5.9142 3.38563 5.9523 3.2942C5.99039 3.20276 6.01 3.10469 6.01 3.00564C6.01 2.90659 5.99039 2.80852 5.9523 2.71708C5.9142 2.62565 5.85838 2.54266 5.78806 2.47291L3.53709 0.221944C3.46734 0.151618 3.38435 0.095798 3.29292 0.0577052C3.20148 0.0196123 3.10341 0 3.00436 0C2.90531 0 2.80724 0.0196123 2.7158 0.0577052C2.62437 0.095798 2.54138 0.151618 2.47163 0.221944L0.220664 2.47291C0.0793751 2.6142 0 2.80583 0 3.00564C0 3.20545 0.0793751 3.39708 0.220664 3.53837C0.361952 3.67966 0.55358 3.75903 0.753393 3.75903C0.953205 3.75903 1.14483 3.67966 1.28612 3.53837ZM4.7226 6.97485L3.00436 8.70059L1.28612 6.97485C1.21616 6.90489 1.13311 6.84939 1.0417 6.81153C0.950298 6.77367 0.852329 6.75418 0.753393 6.75418C0.654456 6.75418 0.556487 6.77367 0.465081 6.81153C0.373676 6.84939 0.290623 6.90489 0.220664 6.97485C0.150705 7.0448 0.09521 7.12786 0.0573485 7.21926C0.0194869 7.31067 0 7.40864 0 7.50757C0 7.60651 0.0194869 7.70448 0.0573485 7.79589C0.09521 7.88729 0.150705 7.97034 0.220664 8.0403L2.47163 10.2913C2.54138 10.3616 2.62437 10.4174 2.7158 10.4555C2.80724 10.4936 2.90531 10.5132 3.00436 10.5132C3.10341 10.5132 3.20148 10.4936 3.29292 10.4555C3.38435 10.4174 3.46734 10.3616 3.53709 10.2913L5.78806 8.0403C5.92934 7.89901 6.00872 7.70739 6.00872 7.50757C6.00872 7.30776 5.92934 7.11613 5.78806 6.97485C5.64677 6.83356 5.45514 6.75418 5.25533 6.75418C5.05552 6.75418 4.86389 6.83356 4.7226 6.97485Z" fill="#625F5F"/>
</svg>
