<svg width="15" height="11" viewBox="0 0 15 11" fill="none" xmlns="http://www.w3.org/2000/svg">
<path d="M4.14417 7H6.31016C6.50165 7 6.68529 6.92625 6.82069 6.79497C6.95609 6.6637 7.03216 6.48565 7.03216 6.3C7.03216 6.11435 6.95609 5.9363 6.82069 5.80503C6.68529 5.67375 6.50165 5.6 6.31016 5.6H4.14417C3.95268 5.6 3.76904 5.67375 3.63364 5.80503C3.49824 5.9363 3.42217 6.11435 3.42217 6.3C3.42217 6.48565 3.49824 6.6637 3.63364 6.79497C3.76904 6.92625 3.95268 7 4.14417 7ZM12.8081 0H2.70017C2.12572 0 1.57479 0.221249 1.16858 0.615076C0.762382 1.0089 0.53418 1.54305 0.53418 2.1V8.4C0.53418 8.95695 0.762382 9.4911 1.16858 9.88492C1.57479 10.2788 2.12572 10.5 2.70017 10.5H12.8081C13.3826 10.5 13.9335 10.2788 14.3397 9.88492C14.7459 9.4911 14.9741 8.95695 14.9741 8.4V2.1C14.9741 1.54305 14.7459 1.0089 14.3397 0.615076C13.9335 0.221249 13.3826 0 12.8081 0ZM13.5301 8.4C13.5301 8.58565 13.4541 8.7637 13.3187 8.89497C13.1833 9.02625 12.9996 9.1 12.8081 9.1H2.70017C2.50869 9.1 2.32504 9.02625 2.18964 8.89497C2.05424 8.7637 1.97818 8.58565 1.97818 8.4V4.2H13.5301V8.4ZM13.5301 2.8H1.97818V2.1C1.97818 1.91435 2.05424 1.7363 2.18964 1.60503C2.32504 1.47375 2.50869 1.4 2.70017 1.4H12.8081C12.9996 1.4 13.1833 1.47375 13.3187 1.60503C13.4541 1.7363 13.5301 1.91435 13.5301 2.1V2.8Z" fill="#323232"/>
</svg>
