<svg width="19" height="14" viewBox="0 0 19 14" fill="none" xmlns="http://www.w3.org/2000/svg">
<path d="M0 7.39391V10.7853C0 10.9652 0.0907984 11.1377 0.252421 11.2649C0.414043 11.3921 0.63325 11.4636 0.861818 11.4636H1.72364C1.72364 12.0033 1.99603 12.5209 2.4809 12.9025C2.96577 13.2841 3.62339 13.4985 4.30909 13.4985C4.9948 13.4985 5.65242 13.2841 6.13728 12.9025C6.62215 12.5209 6.89455 12.0033 6.89455 11.4636H12.0655C12.0655 12.0033 12.3378 12.5209 12.8227 12.9025C13.3076 13.2841 13.9652 13.4985 14.6509 13.4985C15.3366 13.4985 15.9942 13.2841 16.4791 12.9025C16.964 12.5209 17.2364 12.0033 17.2364 11.4636H18.0982C18.3267 11.4636 18.546 11.3921 18.7076 11.2649C18.8692 11.1377 18.96 10.9652 18.96 10.7853V2.64593C18.96 2.10626 18.6876 1.58869 18.2027 1.20708C17.7179 0.825469 17.0602 0.611084 16.3745 0.611084H8.61818C7.93248 0.611084 7.27486 0.825469 6.78999 1.20708C6.30512 1.58869 6.03273 2.10626 6.03273 2.64593V4.0025H4.30909C3.90771 4.0025 3.51184 4.07605 3.15284 4.21732C2.79384 4.3586 2.48155 4.56372 2.24073 4.81644L0.172364 6.98694C0.147157 7.01643 0.126881 7.04834 0.112036 7.0819L0.0603273 7.15651C0.0222918 7.23216 0.00185726 7.31257 0 7.39391ZM13.7891 11.4636C13.7891 11.3295 13.8396 11.1983 13.9343 11.0868C14.029 10.9752 14.1636 10.8883 14.3211 10.837C14.4786 10.7856 14.6519 10.7722 14.819 10.7984C14.9862 10.8245 15.1398 10.8891 15.2603 10.984C15.3808 11.0789 15.4629 11.1997 15.4962 11.3313C15.5294 11.4629 15.5124 11.5992 15.4471 11.7232C15.3819 11.8471 15.2714 11.9531 15.1297 12.0276C14.988 12.1021 14.8214 12.1419 14.6509 12.1419C14.4223 12.1419 14.2031 12.0704 14.0415 11.9432C13.8799 11.816 13.7891 11.6435 13.7891 11.4636ZM7.75636 2.64593C7.75636 2.46604 7.84716 2.29352 8.00878 2.16631C8.17041 2.03911 8.38961 1.96765 8.61818 1.96765H16.3745C16.6031 1.96765 16.8223 2.03911 16.9839 2.16631C17.1456 2.29352 17.2364 2.46604 17.2364 2.64593V10.107H16.5641C16.3218 9.89721 16.0264 9.72956 15.697 9.61484C15.3675 9.50011 15.0112 9.44085 14.6509 9.44085C14.2906 9.44085 13.9343 9.50011 13.6048 9.61484C13.2754 9.72956 12.98 9.89721 12.7377 10.107H7.75636V2.64593ZM6.03273 6.71563H2.58545L3.61964 5.63038C3.69991 5.54614 3.80401 5.47776 3.92367 5.43067C4.04334 5.38358 4.1753 5.35906 4.30909 5.35906H6.03273V6.71563ZM3.44727 11.4636C3.44727 11.3295 3.49782 11.1983 3.59252 11.0868C3.68721 10.9752 3.82181 10.8883 3.97929 10.837C4.13676 10.7856 4.31005 10.7722 4.47722 10.7984C4.6444 10.8245 4.79796 10.8891 4.91849 10.984C5.03902 11.0789 5.1211 11.1997 5.15435 11.3313C5.1876 11.4629 5.17054 11.5992 5.10531 11.7232C5.04008 11.8471 4.92962 11.9531 4.78789 12.0276C4.64617 12.1021 4.47954 12.1419 4.30909 12.1419C4.08052 12.1419 3.86132 12.0704 3.69969 11.9432C3.53807 11.816 3.44727 11.6435 3.44727 11.4636ZM1.72364 8.0722H6.03273V9.95782C5.52411 9.60007 4.85646 9.415 4.17524 9.44295C3.49403 9.4709 2.85445 9.7096 2.39585 10.107H1.72364V8.0722Z" fill="#323232"/>
</svg>
