<svg width="14" height="9" viewBox="0 0 14 9" fill="none" xmlns="http://www.w3.org/2000/svg">
<path d="M13.1601 0.373504C12.9194 0.134277 12.5939 0 12.2545 0C11.9152 0 11.5897 0.134277 11.349 0.373504L6.73789 4.92041L2.19099 0.373504C1.95033 0.134277 1.62479 0 1.28546 0C0.946131 0 0.620589 0.134277 0.379934 0.373504C0.259546 0.492909 0.163991 0.634969 0.0987817 0.791489C0.0335726 0.94801 0 1.11589 0 1.28545C0 1.45501 0.0335726 1.6229 0.0987817 1.77942C0.163991 1.93594 0.259546 2.078 0.379934 2.1974L5.82594 7.64341C5.94534 7.7638 6.0874 7.85935 6.24392 7.92456C6.40044 7.98977 6.56833 8.02334 6.73789 8.02334C6.90745 8.02334 7.07533 7.98977 7.23185 7.92456C7.38837 7.85935 7.53043 7.7638 7.64984 7.64341L13.1601 2.1974C13.2805 2.078 13.376 1.93594 13.4412 1.77942C13.5064 1.6229 13.54 1.45501 13.54 1.28545C13.54 1.11589 13.5064 0.94801 13.4412 0.791489C13.376 0.634969 13.2805 0.492909 13.1601 0.373504Z" fill="#323232" fill-opacity="0.75"/>
</svg>
