<svg width="13" height="12" viewBox="0 0 13 12" fill="none" xmlns="http://www.w3.org/2000/svg">
<path d="M11.0862 1.2H9.8485V0.6C9.8485 0.44087 9.7833 0.288258 9.66724 0.175736C9.55119 0.0632141 9.39378 0 9.22965 0C9.06552 0 8.90811 0.0632141 8.79205 0.175736C8.67599 0.288258 8.61079 0.44087 8.61079 0.6V1.2H4.89766V0.6C4.89766 0.44087 4.83246 0.288258 4.7164 0.175736C4.60034 0.0632141 4.44294 0 4.27881 0C4.11467 0 3.95727 0.0632141 3.84121 0.175736C3.72515 0.288258 3.65995 0.44087 3.65995 0.6V1.2H2.42224C1.92985 1.2 1.45762 1.38964 1.10945 1.72721C0.761276 2.06477 0.565674 2.52261 0.565674 3V10.2C0.565674 10.6774 0.761276 11.1352 1.10945 11.4728C1.45762 11.8104 1.92985 12 2.42224 12H11.0862C11.5786 12 12.0508 11.8104 12.399 11.4728C12.7472 11.1352 12.9428 10.6774 12.9428 10.2V3C12.9428 2.52261 12.7472 2.06477 12.399 1.72721C12.0508 1.38964 11.5786 1.2 11.0862 1.2ZM11.7051 10.2C11.7051 10.3591 11.6399 10.5117 11.5238 10.6243C11.4078 10.7368 11.2503 10.8 11.0862 10.8H2.42224C2.25811 10.8 2.1007 10.7368 1.98464 10.6243C1.86859 10.5117 1.80338 10.3591 1.80338 10.2V6H11.7051V10.2ZM11.7051 4.8H1.80338V3C1.80338 2.84087 1.86859 2.68826 1.98464 2.57574C2.1007 2.46321 2.25811 2.4 2.42224 2.4H3.65995V3C3.65995 3.15913 3.72515 3.31174 3.84121 3.42426C3.95727 3.53679 4.11467 3.6 4.27881 3.6C4.44294 3.6 4.60034 3.53679 4.7164 3.42426C4.83246 3.31174 4.89766 3.15913 4.89766 3V2.4H8.61079V3C8.61079 3.15913 8.67599 3.31174 8.79205 3.42426C8.90811 3.53679 9.06552 3.6 9.22965 3.6C9.39378 3.6 9.55119 3.53679 9.66724 3.42426C9.7833 3.31174 9.8485 3.15913 9.8485 3V2.4H11.0862C11.2503 2.4 11.4078 2.46321 11.5238 2.57574C11.6399 2.68826 11.7051 2.84087 11.7051 3V4.8Z" fill="#323232"/>
</svg>
