<svg width="16" height="18" viewBox="0 0 16 18" fill="none" xmlns="http://www.w3.org/2000/svg">
<path d="M11.5267 10.64H4.43333C4.19817 10.64 3.97265 10.7334 3.80637 10.8997C3.64008 11.066 3.54667 11.2915 3.54667 11.5267C3.54667 11.7618 3.64008 11.9874 3.80637 12.1536C3.97265 12.3199 4.19817 12.4133 4.43333 12.4133H11.5267C11.7618 12.4133 11.9874 12.3199 12.1536 12.1536C12.3199 11.9874 12.4133 11.7618 12.4133 11.5267C12.4133 11.2915 12.3199 11.066 12.1536 10.8997C11.9874 10.7334 11.7618 10.64 11.5267 10.64ZM11.5267 7.09333H6.20667C5.97151 7.09333 5.74598 7.18675 5.5797 7.35303C5.41342 7.51931 5.32 7.74484 5.32 7.98C5.32 8.21516 5.41342 8.44069 5.5797 8.60697C5.74598 8.77325 5.97151 8.86667 6.20667 8.86667H11.5267C11.7618 8.86667 11.9874 8.77325 12.1536 8.60697C12.3199 8.44069 12.4133 8.21516 12.4133 7.98C12.4133 7.74484 12.3199 7.51931 12.1536 7.35303C11.9874 7.18675 11.7618 7.09333 11.5267 7.09333ZM15.0733 1.77333H12.4133V0.886667C12.4133 0.651508 12.3199 0.425981 12.1536 0.259699C11.9874 0.0934164 11.7618 0 11.5267 0C11.2915 0 11.066 0.0934164 10.8997 0.259699C10.7334 0.425981 10.64 0.651508 10.64 0.886667V1.77333H8.86667V0.886667C8.86667 0.651508 8.77325 0.425981 8.60697 0.259699C8.44069 0.0934164 8.21516 0 7.98 0C7.74484 0 7.51931 0.0934164 7.35303 0.259699C7.18675 0.425981 7.09333 0.651508 7.09333 0.886667V1.77333H5.32V0.886667C5.32 0.651508 5.22658 0.425981 5.0603 0.259699C4.89402 0.0934164 4.66849 0 4.43333 0C4.19817 0 3.97265 0.0934164 3.80637 0.259699C3.64008 0.425981 3.54667 0.651508 3.54667 0.886667V1.77333H0.886667C0.651508 1.77333 0.425981 1.86675 0.259699 2.03303C0.0934164 2.19931 0 2.42484 0 2.66V15.0733C0 15.7788 0.280249 16.4554 0.779096 16.9542C1.27794 17.4531 1.95452 17.7333 2.66 17.7333H13.3C14.0055 17.7333 14.6821 17.4531 15.1809 16.9542C15.6798 16.4554 15.96 15.7788 15.96 15.0733V2.66C15.96 2.42484 15.8666 2.19931 15.7003 2.03303C15.534 1.86675 15.3085 1.77333 15.0733 1.77333ZM14.1867 15.0733C14.1867 15.3085 14.0933 15.534 13.927 15.7003C13.7607 15.8666 13.5352 15.96 13.3 15.96H2.66C2.42484 15.96 2.19931 15.8666 2.03303 15.7003C1.86675 15.534 1.77333 15.3085 1.77333 15.0733V3.54667H3.54667V4.43333C3.54667 4.66849 3.64008 4.89402 3.80637 5.0603C3.97265 5.22658 4.19817 5.32 4.43333 5.32C4.66849 5.32 4.89402 5.22658 5.0603 5.0603C5.22658 4.89402 5.32 4.66849 5.32 4.43333V3.54667H7.09333V4.43333C7.09333 4.66849 7.18675 4.89402 7.35303 5.0603C7.51931 5.22658 7.74484 5.32 7.98 5.32C8.21516 5.32 8.44069 5.22658 8.60697 5.0603C8.77325 4.89402 8.86667 4.66849 8.86667 4.43333V3.54667H10.64V4.43333C10.64 4.66849 10.7334 4.89402 10.8997 5.0603C11.066 5.22658 11.2915 5.32 11.5267 5.32C11.7618 5.32 11.9874 5.22658 12.1536 5.0603C12.3199 4.89402 12.4133 4.66849 12.4133 4.43333V3.54667H14.1867V15.0733Z" fill="#323232"/>
</svg>
