<svg width="13" height="14" viewBox="0 0 13 14" fill="none" xmlns="http://www.w3.org/2000/svg">
<path d="M9.87706 4.8125V3.4375C9.87706 2.52582 9.50351 1.65148 8.8386 1.00682C8.17368 0.362164 7.27186 0 6.33153 0C5.3912 0 4.48938 0.362164 3.82447 1.00682C3.15955 1.65148 2.78601 2.52582 2.78601 3.4375V4.8125C2.22181 4.8125 1.68072 5.0298 1.28177 5.41659C0.882819 5.80339 0.658691 6.32799 0.658691 6.875V11.6875C0.658691 12.2345 0.882819 12.7591 1.28177 13.1459C1.68072 13.5327 2.22181 13.75 2.78601 13.75H9.87706C10.4413 13.75 10.9823 13.5327 11.3813 13.1459C11.7802 12.7591 12.0044 12.2345 12.0044 11.6875V6.875C12.0044 6.32799 11.7802 5.80339 11.3813 5.41659C10.9823 5.0298 10.4413 4.8125 9.87706 4.8125ZM4.20422 3.4375C4.20422 2.89049 4.42834 2.36589 4.82729 1.97909C5.22624 1.5923 5.76733 1.375 6.33153 1.375C6.89573 1.375 7.43682 1.5923 7.83577 1.97909C8.23472 2.36589 8.45885 2.89049 8.45885 3.4375V4.8125H4.20422V3.4375ZM10.5862 11.6875C10.5862 11.8698 10.5115 12.0447 10.3785 12.1736C10.2455 12.3026 10.0651 12.375 9.87706 12.375H2.78601C2.59794 12.375 2.41758 12.3026 2.28459 12.1736C2.15161 12.0447 2.0769 11.8698 2.0769 11.6875V6.875C2.0769 6.69266 2.15161 6.5178 2.28459 6.38886C2.41758 6.25993 2.59794 6.1875 2.78601 6.1875H9.87706C10.0651 6.1875 10.2455 6.25993 10.3785 6.38886C10.5115 6.5178 10.5862 6.69266 10.5862 6.875V11.6875Z" fill="#323232"/>
</svg>
