<svg width="12" height="12" viewBox="0 0 12 12" fill="none" xmlns="http://www.w3.org/2000/svg">
<path d="M8.37632 5.92263C8.93523 5.49629 9.34318 4.91166 9.54342 4.25007C9.74367 3.58849 9.72624 2.88283 9.49357 2.23129C9.2609 1.57975 8.82456 1.01472 8.24524 0.614814C7.66593 0.214904 6.97246 0 6.26131 0C5.55015 0 4.85668 0.214904 4.27737 0.614814C3.69806 1.01472 3.26172 1.57975 3.02905 2.23129C2.79638 2.88283 2.77895 3.58849 2.97919 4.25007C3.17943 4.91166 3.58739 5.49629 4.14629 5.92263C3.18859 6.29463 2.35297 6.91163 1.7285 7.70785C1.10403 8.50408 0.71413 9.44967 0.600362 10.4438C0.592127 10.5164 0.598719 10.5899 0.61976 10.66C0.640801 10.7301 0.67588 10.7955 0.722994 10.8525C0.818146 10.9675 0.956542 11.0412 1.10774 11.0574C1.25893 11.0735 1.41054 11.0307 1.52922 10.9385C1.64789 10.8462 1.7239 10.712 1.74053 10.5654C1.86571 9.48499 2.39709 8.48712 3.23314 7.7625C4.06919 7.03788 5.15129 6.6373 6.27271 6.6373C7.39413 6.6373 8.47623 7.03788 9.31228 7.7625C10.1483 8.48712 10.6797 9.48499 10.8049 10.5654C10.8204 10.7013 10.8872 10.8267 10.9925 10.9175C11.0978 11.0084 11.234 11.0582 11.375 11.0574H11.4377C11.5871 11.0407 11.7237 10.9674 11.8177 10.8535C11.9116 10.7397 11.9554 10.5944 11.9394 10.4494C11.8251 9.45238 11.433 8.50435 10.8054 7.70691C10.1777 6.90946 9.33801 6.29266 8.37632 5.92263ZM6.26131 5.5302C5.8103 5.5302 5.36942 5.40053 4.99442 5.1576C4.61942 4.91467 4.32714 4.56938 4.15455 4.16539C3.98195 3.76141 3.9368 3.31688 4.02478 2.88802C4.11277 2.45915 4.32995 2.06521 4.64886 1.75602C4.96777 1.44682 5.37409 1.23626 5.81644 1.15095C6.25878 1.06564 6.71728 1.10943 7.13396 1.27676C7.55063 1.4441 7.90677 1.72747 8.15734 2.09104C8.40791 2.45462 8.54165 2.88207 8.54165 3.31933C8.54165 3.90569 8.3014 4.46803 7.87375 4.88265C7.44611 5.29727 6.86609 5.5302 6.26131 5.5302Z" fill="#323232"/>
</svg>
