<svg width="23" height="23" viewBox="0 0 23 23" fill="none" xmlns="http://www.w3.org/2000/svg">
<path d="M11.5 0C9.26531 0.00424217 7.08007 0.657687 5.21047 1.88074C3.34086 3.1038 1.86758 4.84368 0.970082 6.88845C0.0725792 8.93323 -0.21041 11.1947 0.155583 13.3973C0.521575 15.5999 1.52075 17.6486 3.03141 19.2939C4.11035 20.4625 5.41984 21.395 6.87735 22.0329C8.33486 22.6707 9.90881 23 11.5 23C13.0912 23 14.6651 22.6707 16.1227 22.0329C17.5802 21.395 18.8897 20.4625 19.9686 19.2939C21.4792 17.6486 22.4784 15.5999 22.8444 13.3973C23.2104 11.1947 22.9274 8.93323 22.0299 6.88845C21.1324 4.84368 19.6591 3.1038 17.7895 1.88074C15.9199 0.657687 13.7347 0.00424217 11.5 0ZM11.5 20.7214C9.1132 20.7178 6.82087 19.7893 5.10535 18.1312C5.62619 16.8644 6.51222 15.7809 7.65083 15.0183C8.78945 14.2557 10.1293 13.8486 11.5 13.8486C12.8707 13.8486 14.2106 14.2557 15.3492 15.0183C16.4878 15.7809 17.3738 16.8644 17.8946 18.1312C16.1791 19.7893 13.8868 20.7178 11.5 20.7214ZM9.19562 9.20952C9.19562 8.75415 9.33077 8.30901 9.58398 7.93039C9.83719 7.55176 10.1971 7.25666 10.6182 7.0824C11.0392 6.90813 11.5026 6.86254 11.9496 6.95138C12.3966 7.04022 12.8072 7.2595 13.1294 7.58149C13.4517 7.90348 13.6712 8.31373 13.7601 8.76035C13.849 9.20696 13.8034 9.6699 13.629 10.0906C13.4546 10.5113 13.1592 10.8709 12.7802 11.1239C12.4013 11.3769 11.9558 11.5119 11.5 11.5119C10.8888 11.5119 10.3027 11.2693 9.87056 10.8375C9.43841 10.4058 9.19562 9.82015 9.19562 9.20952ZM19.4616 16.1167C18.4322 14.3574 16.8478 12.9889 14.9566 12.2256C15.5432 11.561 15.9255 10.7414 16.0574 9.86505C16.1894 8.98874 16.0655 8.09299 15.7006 7.2853C15.3357 6.47761 14.7452 5.79228 14.0001 5.31155C13.255 4.83082 12.3869 4.57511 11.5 4.57511C10.6131 4.57511 9.74495 4.83082 8.99986 5.31155C8.25476 5.79228 7.66433 6.47761 7.29941 7.2853C6.93449 8.09299 6.81058 8.98874 6.94255 9.86505C7.07453 10.7414 7.45678 11.561 8.04344 12.2256C6.15223 12.9889 4.56782 14.3574 3.53838 16.1167C2.71795 14.7204 2.28447 13.131 2.28249 11.5119C2.28249 9.06938 3.25362 6.7269 4.98224 4.99979C6.71086 3.27267 9.05536 2.30238 11.5 2.30238C13.9446 2.30238 16.2891 3.27267 18.0178 4.99979C19.7464 6.7269 20.7175 9.06938 20.7175 11.5119C20.7155 13.131 20.282 14.7204 19.4616 16.1167Z" fill="#FD0015"/>
</svg>
