<svg width="73" height="76" viewBox="0 0 73 76" fill="none" xmlns="http://www.w3.org/2000/svg">
<path fill-rule="evenodd" clip-rule="evenodd" d="M5.09152 75.0031C5.15221 74.8423 5.24535 74.7655 5.36345 74.7786C5.49336 74.7929 5.48995 74.7173 5.35118 74.5056C5.24564 74.3446 5.08422 74.2292 4.99243 74.2493C4.7274 74.3073 4.60136 73.9912 4.7336 73.6C4.80051 73.4023 4.81332 73.1765 4.76202 73.0983C4.6472 72.9232 4.47757 73.0174 4.50771 73.2398C4.51986 73.3296 4.4839 73.294 4.42774 73.1606C4.35531 72.9888 4.29509 72.96 4.22162 73.0618C4.16446 73.141 4.08516 73.1561 4.04541 73.0955C4.00566 73.0349 4.02889 72.9478 4.09715 72.9019C4.17962 72.8462 4.15063 72.8197 4.00993 72.8222C3.82862 72.8257 3.81242 72.7855 3.8955 72.5387C3.94872 72.3807 4.06795 72.1399 4.16033 72.0039C4.25583 71.8633 4.2675 71.7282 4.18749 71.691C4.08918 71.6453 4.04748 71.6833 4.04921 71.817C4.05124 71.9627 4.01676 71.9635 3.90455 71.8203C3.82356 71.7168 3.71766 71.5825 3.66926 71.522C3.6208 71.4614 3.52638 71.4005 3.45935 71.3868C3.15298 71.3237 3.246 71.1584 3.70791 70.9454C4.24686 70.6968 4.26913 70.647 3.87781 70.5665C3.64772 70.5191 3.63066 70.4948 3.73085 70.3561C3.79311 70.2699 3.77799 70.1519 3.69719 70.0939C3.61516 70.0351 3.60984 69.9485 3.685 69.898C3.7889 69.8282 3.77091 69.808 3.60641 69.8093C3.42419 69.811 3.41839 69.7943 3.56711 69.6949C3.67641 69.622 3.69078 69.5019 3.60593 69.3725C3.53152 69.259 3.49411 69.0548 3.52275 68.9186C3.55138 68.7824 3.4741 68.5173 3.35106 68.3296C3.22796 68.1419 3.16894 67.9609 3.21993 67.9275C3.3436 67.8464 3.24653 67.0551 3.10486 66.9893C3.04338 66.9607 3.03559 66.9096 3.08738 66.8756C3.20036 66.8015 3.04986 65.4717 2.9032 65.248C2.84635 65.1613 2.87317 65.0005 2.96278 64.8908C3.05232 64.781 3.07212 64.6516 3.00658 64.6033C2.87157 64.5038 2.81102 63.6474 2.91773 63.3472C2.97771 63.1788 2.94831 63.1407 2.72214 63.0943C2.38685 63.0253 2.24118 62.8181 2.48964 62.7639C2.79668 62.6966 2.9126 62.4278 2.74479 62.1718C2.64668 62.0222 2.64335 61.6468 2.73581 61.1734C2.83973 60.6418 2.83091 60.3717 2.70641 60.2705C2.57356 60.1628 2.57815 60.1155 2.72437 60.0834C2.92034 60.0406 2.89742 59.9171 2.63334 59.5922C2.56049 59.5024 2.55352 59.356 2.61797 59.2668C2.68691 59.1713 2.65744 58.9859 2.54635 58.8165C2.42945 58.6382 2.41001 58.4941 2.49529 58.4381C2.57098 58.3885 2.64391 58.2531 2.65722 58.1374C2.67128 58.0151 2.82084 57.8569 3.01404 57.7599C3.29138 57.6208 3.31715 57.572 3.16915 57.4658C3.07157 57.3957 3.04543 57.3495 3.11103 57.363C3.2435 57.3901 3.4145 56.8699 3.32031 56.7263C3.24982 56.6187 3.32833 56.1838 3.43031 56.1169C3.5051 56.0679 3.57451 55.6594 3.65944 54.7678C3.68796 54.469 3.75004 54.1991 3.79743 54.168C3.92091 54.0871 4.09772 53.2251 4.04288 52.9709C4.01743 52.853 4.06063 52.7143 4.13901 52.6629C4.2173 52.6116 4.26322 52.4854 4.24107 52.3825C4.21881 52.2797 4.29203 52.1356 4.40381 52.0623C4.51549 51.9891 4.56986 51.8727 4.52469 51.8038C4.47946 51.7348 4.49889 51.5567 4.56785 51.4078C4.66035 51.2085 4.64474 51.1274 4.50857 51.0994C4.40694 51.0784 4.29442 51.0134 4.25829 50.9548C4.22233 50.8963 4.29001 50.8966 4.40896 50.9557C4.72707 51.1138 4.80429 51.0114 4.97319 50.208C5.05732 49.8082 5.16528 49.489 5.2132 49.4989C5.26113 49.5087 5.35792 49.437 5.42844 49.3394C5.52618 49.2041 5.51075 49.1525 5.36367 49.1222C5.04639 49.0569 5.04091 48.9182 5.35466 48.8895C5.59317 48.8678 5.64995 48.8184 5.66031 48.6231C5.66728 48.4911 5.72428 48.3496 5.78697 48.3085C5.84965 48.2674 5.87157 48.1889 5.83567 48.1342C5.79977 48.0794 5.83789 47.9904 5.92037 47.9363C6.00366 47.8817 6.01232 47.7495 5.9398 47.6389C5.86598 47.5263 5.87594 47.396 5.96273 47.3391C6.04721 47.2837 6.17505 47.1041 6.24691 46.9398C6.31877 46.7756 6.49177 46.5521 6.63138 46.4432C6.77966 46.3275 6.86007 46.1553 6.82483 46.029C6.79164 45.9101 6.82313 45.8112 6.89452 45.8091C6.96607 45.807 7.07883 45.67 7.14526 45.5045C7.2116 45.339 7.34591 45.1511 7.4437 45.087C7.54138 45.023 7.58043 44.9081 7.53044 44.8318C7.4106 44.6491 7.60713 44.3895 7.95782 44.2672C8.12003 44.2107 8.21084 44.1253 8.172 44.066C8.09465 43.9481 8.45633 43.2843 8.67649 43.14C8.80176 43.0578 8.78724 43.0326 8.57767 42.9683C8.35272 42.8993 8.35894 42.8922 8.65223 42.8838C8.91584 42.8764 8.97158 42.8422 8.96828 42.6893C8.96612 42.5872 9.07574 42.4119 9.2119 42.2997C9.34817 42.1874 9.49198 41.9753 9.53142 41.8283C9.57085 41.6813 9.75076 41.4426 9.93109 41.2979C10.1114 41.1532 10.2934 40.9049 10.3355 40.746C10.3776 40.5871 10.4846 40.4414 10.5732 40.422C10.6619 40.4026 10.7328 40.323 10.7308 40.2452C10.7289 40.1673 10.9201 39.9338 11.1554 39.7261C11.391 39.5184 11.6158 39.2343 11.655 39.0946C11.6944 38.9549 11.8148 38.7951 11.9226 38.7395C12.2659 38.5624 12.3559 38.4549 12.2702 38.3243C12.2131 38.2372 12.3257 38.1165 12.626 37.9427C12.8676 37.8028 13.119 37.5657 13.1845 37.4158C13.2501 37.2659 13.4028 37.0563 13.5241 36.9501C13.6452 36.8437 13.7551 36.6537 13.7682 36.5277C13.7828 36.3875 13.8229 36.3426 13.8712 36.4122C13.9482 36.5229 14.1075 36.3666 14.613 35.6834C14.6965 35.5707 14.9624 35.3449 15.2039 35.1814C15.4986 34.982 15.6382 34.8127 15.6281 34.6662C15.6163 34.4925 15.6588 34.4532 15.8373 34.4729C16.0034 34.4914 16.1002 34.4321 16.2115 34.2437C16.2942 34.104 16.4994 33.8561 16.6676 33.693C16.8358 33.5298 17.0007 33.3397 17.034 33.2706C17.1134 33.1057 17.2147 33.0168 18.1687 32.2757C18.6114 31.9316 18.9736 31.5903 18.9735 31.517C18.9734 31.4438 19.2381 31.2098 19.5617 30.997C19.8855 30.7843 20.5235 30.2472 20.9796 29.8036C21.4357 29.36 22.1927 28.7484 22.6618 28.4446C23.1309 28.1408 23.7526 27.6662 24.0434 27.3901C24.5395 26.9189 25.5306 26.2876 25.7859 26.2803C25.8489 26.2785 25.9354 26.2024 25.9782 26.1113C26.021 26.0202 26.2414 25.8759 26.4681 25.7908C26.6949 25.7056 26.9048 25.5836 26.9348 25.5197C26.9649 25.4557 27.1672 25.2741 27.3846 25.1162C27.602 24.9582 27.7634 24.7666 27.7434 24.6905C27.7184 24.5954 27.787 24.5426 27.9627 24.5218C28.1034 24.505 28.3297 24.4777 28.4655 24.4611C28.604 24.4441 28.8456 24.2934 29.0157 24.1178C29.2037 23.9237 29.3838 23.8182 29.4899 23.84C29.6078 23.8643 29.6816 23.8082 29.7275 23.6598C29.7754 23.5047 29.8334 23.4628 29.9347 23.5098C30.0175 23.5483 30.3447 23.3908 30.7321 23.1258C31.0933 22.8787 31.5798 22.5953 31.8132 22.4962C32.1392 22.3578 32.256 22.2455 32.3176 22.0117C32.3615 21.8443 32.429 21.7553 32.4675 21.8141C32.5059 21.8727 32.4985 21.9842 32.4511 22.0617C32.4036 22.1392 32.5156 22.0763 32.7 21.9219C32.8845 21.7676 33.1085 21.6564 33.1979 21.6748C33.2873 21.6932 33.5239 21.6344 33.7236 21.5441C33.9234 21.4538 34.2336 21.3498 34.4132 21.3129C34.8821 21.2166 35.45 20.8921 35.5866 20.6424C35.6562 20.5153 35.7288 20.465 35.7644 20.5193C35.8135 20.5943 36.5393 20.3407 36.9857 20.0926C37.0434 20.0607 37.1541 20.0331 37.2317 20.0314C37.3096 20.0298 37.6001 19.8615 37.8776 19.6575C38.2065 19.4157 38.3834 19.3369 38.3857 19.4313C38.3879 19.5218 38.4564 19.5019 38.568 19.3786C38.6663 19.2701 38.7995 19.2058 38.8639 19.2358C38.9284 19.2657 39.0043 19.241 39.0325 19.1807C39.0608 19.1205 39.1372 19.096 39.2023 19.1262C39.2673 19.1564 39.6898 18.9844 40.1409 18.7437C40.592 18.5032 41.0482 18.3146 41.1547 18.3246C41.3525 18.3433 41.6754 18.2089 42.2802 17.8562C42.4675 17.747 42.6686 17.68 42.727 17.7071C42.7854 17.7343 42.979 17.6609 43.1573 17.544C43.3355 17.4272 43.5737 17.3506 43.6865 17.3738C43.8498 17.4074 43.891 17.3733 43.8886 17.2058C43.8869 17.09 43.9182 17.0437 43.9582 17.1028C44.077 17.2787 44.5973 17.1437 44.7559 16.8959C44.9114 16.6532 45.7991 16.4187 45.9118 16.5905C45.9467 16.6438 46.0902 16.5726 46.2351 16.43C46.3835 16.2842 46.5889 16.1842 46.7123 16.1979C46.8789 16.2164 46.92 16.1853 46.8903 16.0634C46.864 15.9558 46.9953 15.9388 47.2983 16.0105C47.6313 16.0895 47.7713 16.066 47.8486 15.9184C47.943 15.7381 48.0958 15.6718 48.8916 15.4663C48.9925 15.4403 49.1956 15.3576 49.3431 15.2827C49.4905 15.2077 49.7852 15.077 49.9979 14.9921C50.295 14.8734 50.3876 14.7794 50.3979 14.5859C50.4101 14.355 50.4294 14.349 50.6317 14.5132C50.876 14.7116 51.0707 14.7586 51.5264 14.7293C51.7838 14.7126 51.8263 14.679 51.792 14.5196C51.7387 14.2731 51.9005 14.1683 52.0297 14.3654C52.1101 14.4881 52.1559 14.4707 52.2617 14.2775C52.3666 14.086 52.4799 14.0399 52.8151 14.0521C53.0469 14.0605 53.3931 13.9648 53.5844 13.8394C53.8482 13.6665 53.9764 13.6511 54.1151 13.7762C54.3066 13.9488 54.5693 13.878 54.4443 13.6874C54.4046 13.6268 54.4528 13.5596 54.5515 13.538C54.6503 13.5164 54.7177 13.4309 54.7016 13.3481C54.6855 13.2651 54.7306 13.2785 54.8018 13.3776C54.9044 13.5204 54.9859 13.5096 55.1931 13.3259C55.3836 13.157 55.4646 13.1386 55.4906 13.2587C55.5144 13.3692 55.566 13.3685 55.6469 13.2564C55.729 13.1428 55.8035 13.1439 55.8795 13.2599C55.9522 13.3707 56.0308 13.376 56.1038 13.2749C56.1656 13.1893 56.2433 13.1606 56.2765 13.2112C56.3096 13.2618 56.5141 13.2291 56.7308 13.1385C56.9475 13.048 57.1705 12.9953 57.2264 13.0212C57.2823 13.0471 57.5359 12.9771 57.79 12.8656C58.044 12.7541 58.3982 12.6876 58.577 12.7178C58.7558 12.7481 59.0061 12.7047 59.1333 12.6213C59.2604 12.538 59.3937 12.5146 59.4296 12.5694C59.4655 12.6241 59.5624 12.6247 59.6449 12.5706C59.7274 12.5165 59.768 12.4314 59.7352 12.3814C59.7024 12.3313 59.8434 12.2528 60.0488 12.2067C60.254 12.1606 60.4471 12.1726 60.4781 12.2332C60.6206 12.5128 60.7246 12.5599 60.8417 12.3979C60.9255 12.2817 60.9677 12.2789 60.9704 12.3891C60.973 12.4929 61.0461 12.506 61.1697 12.425C61.2771 12.3546 61.4309 12.3444 61.5116 12.4024C61.5923 12.4604 61.9401 12.3963 62.2845 12.2602C62.736 12.0817 62.9635 12.0554 63.0999 12.1662C63.2999 12.3286 64.0475 12.3065 64.1276 12.1358C64.1815 12.0209 64.7326 12.154 64.8323 12.306C64.8685 12.3612 65.0395 12.3845 65.2122 12.3576C65.3988 12.3286 65.5414 12.3791 65.5636 12.4819C65.6169 12.7288 66.0022 12.8154 66.2689 12.6405C66.3938 12.5587 66.5656 12.5417 66.6508 12.6028C66.812 12.7185 67.2255 12.4625 67.237 12.2397C67.2406 12.1703 67.3069 12.1429 67.3842 12.1788C67.4615 12.2148 67.4771 12.2754 67.4189 12.3136C67.3607 12.3517 67.3603 12.455 67.418 12.543C67.4865 12.6475 67.4547 12.7179 67.3263 12.746C67.2182 12.7696 67.079 12.8815 67.0171 12.9947C66.953 13.1116 66.82 13.2029 66.709 13.2061C66.5979 13.2093 66.4649 13.3008 66.4006 13.4183C66.3319 13.5438 66.17 13.6508 65.9881 13.6913C65.6293 13.7709 65.4015 14.1261 65.7109 14.1234C65.8223 14.1224 65.6775 14.2504 65.3512 14.4413C65.0509 14.6171 64.7574 14.7232 64.6989 14.6773C64.6406 14.6312 64.529 14.6353 64.4512 14.6864C64.3732 14.7375 64.2654 14.7121 64.2116 14.6299C64.1364 14.5153 63.9859 14.5644 63.5638 14.8411C63.1073 15.1404 63.033 15.2314 63.1266 15.3769C63.1902 15.4758 63.1789 15.5298 63.1006 15.5007C63.0243 15.4724 62.8196 15.4326 62.6459 15.4123C62.3609 15.379 62.3115 15.4081 62.1408 15.7106C61.9719 16.01 61.9219 16.0412 61.6721 16.0026C61.4421 15.9671 61.3366 16.0231 61.078 16.3175C60.6205 16.8383 60.4189 16.9392 60.2102 16.7511C60.0682 16.6231 59.9859 16.6329 59.8579 16.7929C59.7662 16.9079 59.6092 17.0487 59.509 17.1059C59.4088 17.1628 59.3691 17.274 59.4207 17.3528C59.5418 17.5375 59.4475 17.5943 59.1067 17.5417C58.9562 17.5185 58.7177 17.5589 58.5764 17.6314C58.4352 17.7039 58.2434 17.7655 58.1502 17.7681C58.0391 17.7713 58.0263 17.8425 58.1131 17.9749C58.2037 18.1131 58.1865 18.1896 58.0586 18.2176C57.9558 18.24 57.8703 18.2021 57.8687 18.133C57.8669 18.0641 57.662 18.1411 57.4132 18.3042C57.0633 18.5337 56.9662 18.6616 56.9845 18.87C57.0122 19.1878 56.801 19.3636 56.581 19.2057C56.4813 19.1342 56.4853 19.0509 56.5922 18.9736C56.684 18.9073 56.695 18.8655 56.6168 18.8806C56.5387 18.8958 56.3245 19.1019 56.1405 19.3388C55.9567 19.5756 55.7548 19.7709 55.6917 19.7727C55.6286 19.7745 55.6192 19.8403 55.6708 19.9191C55.7224 19.9977 55.7317 20.1681 55.6917 20.2977C55.6316 20.4922 55.6542 20.5362 55.8216 20.5502C55.933 20.5595 56.2171 20.6772 56.4528 20.8117C56.8922 21.0625 57.2009 21.0752 57.308 20.8469C57.3461 20.7659 57.2972 20.7191 57.1769 20.7211C57.0209 20.7239 57.0131 20.7058 57.135 20.624C57.2176 20.5687 57.3999 20.5763 57.5404 20.6408C57.6809 20.7053 57.8684 20.7104 57.9572 20.6522C58.0843 20.5689 58.0744 20.5329 57.9106 20.483C57.7735 20.4414 57.7303 20.3848 57.7835 20.3173C57.9394 20.1198 58.9113 19.6284 58.9697 19.7175C59.002 19.7669 58.9579 19.8538 58.8715 19.9104C58.7304 20.003 58.7402 20.0187 58.9677 20.0656C59.1751 20.1082 59.2422 20.0718 59.3383 19.8644C59.436 19.6539 59.5086 19.6193 59.7684 19.6593C60.0678 19.7056 60.0803 19.6974 60.0644 19.4657C60.0507 19.2643 60.0879 19.2282 60.2872 19.2503C60.419 19.2648 60.5539 19.2188 60.5872 19.1479C60.6204 19.0769 60.8228 19.0006 61.0369 18.978C61.3311 18.9471 61.4928 18.8599 61.6994 18.6207C62.0379 18.2286 62.0069 18.2447 62.1134 18.4072C62.2138 18.5603 63.1796 18.1471 63.3844 17.8635C63.4723 17.7418 63.5186 17.7464 63.5472 17.8792C63.5759 18.0121 63.6794 18.0222 63.9112 17.9143C64.1466 17.805 64.1979 17.737 64.0992 17.6662C64.0084 17.601 64.0499 17.5117 64.2239 17.3977C64.3673 17.3037 64.5157 17.2743 64.5537 17.3322C64.5917 17.3902 64.6535 17.3722 64.6911 17.2921C64.7385 17.1913 64.7979 17.2403 64.885 17.4519L65.0109 17.7572L65.552 17.3561C66.0356 16.9978 66.0818 16.9258 65.9855 16.6815C65.8073 16.2294 66.0404 16.1111 66.3073 16.5182C66.5677 16.9153 66.6382 16.9006 66.9952 16.3745C67.2102 16.0577 67.2482 16.0331 67.2816 16.1884C67.3085 16.3134 67.3566 16.3169 67.441 16.2001C67.512 16.1019 67.595 16.0837 67.6426 16.1563C67.7598 16.3351 68.4476 15.7113 68.5461 15.3369C68.5917 15.1632 68.6563 15.0859 68.7001 15.1527C68.7415 15.2159 68.7215 15.3031 68.6555 15.3463C68.5683 15.4035 68.5852 15.4352 68.7169 15.4623C69.1795 15.5575 71.5056 13.2794 71.5379 12.6998C71.5415 12.6334 71.6057 12.525 71.6804 12.4587C71.8711 12.2896 72.0874 11.5202 72.0832 11.026C72.0813 10.7973 72.1092 10.5241 72.1455 10.4187C72.1962 10.2714 72.102 10.1025 71.7389 9.68884C71.3131 9.20385 71.2428 9.16596 71.0291 9.3061C70.7942 9.46008 70.5536 9.2981 70.199 8.74739C70.137 8.6511 69.967 8.58321 69.8212 8.59653C69.6753 8.60974 69.5546 8.56786 69.553 8.50345C69.5514 8.43904 69.4469 8.3749 69.3206 8.36088C69.1943 8.34687 69.0506 8.27371 69.0012 8.19835C68.9517 8.12289 68.8539 8.09872 68.784 8.14461C68.7062 8.19561 68.5559 8.08657 68.3973 7.86429C67.9752 7.27231 67.8491 7.17445 67.3787 7.07377C67.0693 7.00754 66.9053 6.901 66.8476 6.72902C66.8016 6.59175 66.6194 6.41741 66.4415 6.34042C66.2641 6.26359 66.0502 6.09581 65.966 5.96739C65.8818 5.83906 65.6899 5.69044 65.5395 5.63702C65.3891 5.58376 65.1837 5.41774 65.0833 5.26833C64.9661 5.09409 64.8468 5.03191 64.7507 5.09497C64.6682 5.14905 64.5598 5.13088 64.5098 5.05462C64.4598 4.97836 64.3306 4.93524 64.2227 4.95885C64.093 4.98721 64.0039 4.92064 63.9598 4.76249C63.9134 4.59593 63.7579 4.4953 63.4482 4.43157C63.1994 4.38036 62.907 4.21573 62.7848 4.05786C62.6644 3.90261 62.4574 3.77028 62.3247 3.7638C62.1918 3.75722 62.0083 3.63772 61.9167 3.49804C61.8118 3.33806 61.5782 3.22375 61.2854 3.18935C61.0299 3.15932 60.7748 3.06463 60.7187 2.97902C60.6625 2.8933 60.549 2.86746 60.4665 2.92154C60.3833 2.97614 60.2585 2.93136 60.186 2.82075C60.1142 2.71124 60.0164 2.64727 59.9687 2.67854C59.7987 2.78997 59.2118 1.98288 59.2567 1.69964C59.2945 1.46135 59.2636 1.41823 58.9609 1.2873C58.5794 1.12206 58.5981 1.0422 58.9992 1.12473C59.4496 1.21742 59.3305 1.02608 58.8014 0.807238C58.5263 0.693358 58.2751 0.560177 58.2429 0.511096C58.2108 0.462114 58.1278 0.525314 58.0587 0.651806C57.9894 0.778199 57.8245 0.936577 57.6921 1.00389C57.4914 1.10583 57.4799 1.20035 57.6236 1.57251C57.7363 1.86485 57.8571 2.03121 57.9737 2.05469C58.1008 2.08024 58.097 2.05113 57.9603 1.95245C57.8094 1.84355 57.8147 1.79667 57.9853 1.73092C58.1043 1.68506 58.2249 1.70624 58.2532 1.77805C58.2816 1.84985 58.3478 1.84917 58.4003 1.77644C58.4584 1.6959 58.5479 1.72406 58.6296 1.8486C58.7255 1.99495 58.7024 2.08173 58.5478 2.1549C58.379 2.23464 58.3623 2.38468 58.4714 2.84316C58.607 3.414 58.6183 3.4295 58.9041 3.43775C59.0654 3.44227 59.1991 3.51422 59.2012 3.59741C59.2033 3.6806 59.2699 3.70611 59.3492 3.65413C59.4285 3.60208 59.5798 3.63743 59.6855 3.73272C59.7912 3.82794 59.9061 3.84486 59.9412 3.77018C59.9762 3.69557 60.0359 3.68202 60.0739 3.73996C60.1119 3.79791 60.1032 3.87148 60.0547 3.90327C60.0061 3.93513 60.0016 4.06623 60.0446 4.19461C60.0877 4.32294 60.1637 4.40126 60.2135 4.36855C60.2633 4.33591 60.3629 4.39877 60.4347 4.50828C60.5065 4.61779 60.6129 4.67612 60.6711 4.63797C60.7293 4.59982 60.7786 4.63158 60.7805 4.70862C60.7824 4.78566 60.8316 4.81742 60.8898 4.77927C60.948 4.74112 61.0626 4.81189 61.1443 4.93654C61.2261 5.06128 61.412 5.21174 61.5573 5.27076C61.7027 5.32988 62.0535 5.56268 62.3367 5.78795C62.62 6.01316 62.8932 6.17041 62.9437 6.13731C62.9943 6.10414 63.123 6.21011 63.2296 6.37268C63.4552 6.71684 64.7577 7.49437 65.0146 7.43822C65.246 7.38757 65.3867 7.61546 65.2452 7.81163C65.0731 8.04984 65.3158 8.31139 65.9179 8.53657C66.218 8.64887 66.5904 8.86573 66.7455 9.01846C66.9006 9.1713 67.0719 9.26709 67.1263 9.23143C67.1806 9.19584 67.2545 9.27263 67.2906 9.40211C67.3949 9.77616 67.9266 10.2575 68.3866 10.3941C68.8334 10.527 69.011 10.8427 68.7391 11.021C68.6531 11.0774 68.5518 11.2313 68.5141 11.3631C68.4763 11.4949 68.262 11.7644 68.0378 11.9621C67.7489 12.2168 67.6545 12.2635 67.7139 12.1222C67.7884 11.9451 67.7734 11.9223 67.5797 11.9175C67.386 11.9127 67.3796 11.9029 67.5222 11.8298C67.8377 11.6678 67.9157 11.5577 67.8192 11.4106C67.7653 11.3285 67.7635 11.2336 67.815 11.1998C67.9467 11.1135 67.3402 10.4745 67.1071 10.454C67.0018 10.4447 66.7489 10.2866 66.5449 10.1026C66.1965 9.78809 65.5057 9.58221 65.2847 9.72707C65.2302 9.7628 65.1474 9.73697 65.1008 9.66969C65.001 9.52547 64.4759 9.48666 64.0914 9.59512C63.9376 9.63858 63.7672 9.59128 63.6982 9.48605C63.6293 9.38082 63.4589 9.33353 63.3051 9.37699C62.9277 9.48347 62.3963 9.44757 62.3 9.30909C62.2075 9.17575 61.7382 9.26548 61.322 9.49592C61.2259 9.54909 61.1576 9.54338 61.1703 9.48311C61.1829 9.42285 60.967 9.34019 60.6906 9.2994C60.1426 9.21867 59.8025 9.34068 60.0604 9.52567C60.1933 9.62115 60.171 9.6437 59.9188 9.66828C59.7543 9.68436 59.5795 9.68535 59.5305 9.67052C59.1952 9.56906 58.4564 9.64871 58.2052 9.81344C57.919 10.001 57.4828 10.1114 56.4934 10.2465C56.2203 10.2839 55.8264 10.4605 55.4716 10.705C54.8848 11.1092 54.6986 11.111 54.8873 10.7107C54.9781 10.5178 54.961 10.5132 54.7567 10.6751C54.4869 10.889 53.9231 10.93 53.8015 10.7446C53.7564 10.6757 53.6728 10.6498 53.6159 10.6871C53.5445 10.7339 53.5837 10.7937 53.7421 10.8796C54.0527 11.0482 54.1377 11.1991 53.9802 11.3023C53.9078 11.3498 53.6837 11.2268 53.478 11.0269C53.0363 10.5974 52.7373 10.6607 52.6032 11.212C52.5128 11.5845 52.5124 11.5848 52.4298 11.3386C52.3667 11.1505 52.3014 11.1218 52.1546 11.2181C52.0487 11.2875 51.8316 11.3357 51.6722 11.3254C51.299 11.301 51.2042 11.362 51.326 11.5478C51.3799 11.6299 51.3789 11.7266 51.324 11.7627C51.269 11.7987 51.1799 11.761 51.1261 11.6789C51.0722 11.5967 50.9607 11.5738 50.8782 11.6279C50.7957 11.682 50.6988 11.6814 50.6629 11.6266C50.627 11.5719 50.5302 11.5713 50.4477 11.6254C50.3652 11.6795 50.3274 11.7689 50.3635 11.8241C50.4026 11.8836 50.3118 11.9286 50.1411 11.9343C49.8981 11.9426 49.8506 11.9847 49.8373 12.2035C49.8286 12.3462 49.7929 12.4818 49.7577 12.5049C49.7225 12.5279 49.6422 12.4684 49.5793 12.3727C49.4975 12.2482 49.3703 12.2515 49.1331 12.3844C48.9507 12.4865 48.7312 12.5374 48.6454 12.4976C48.5597 12.4578 48.332 12.535 48.1395 12.6691C47.9305 12.8147 47.7584 12.8657 47.7125 12.7956C47.5656 12.5715 47.0139 12.5877 46.7972 12.8225C46.6704 12.9599 46.5623 13.0038 46.5179 12.9361C46.4782 12.8755 46.3434 12.8905 46.2184 12.9698C46.0933 13.049 45.8366 13.1234 45.6479 13.1353C45.1814 13.1647 44.7767 13.4424 44.7052 13.7823C44.6496 14.0472 44.642 14.0485 44.5741 13.8049C44.5117 13.5809 44.448 13.5688 44.0984 13.7149C43.8764 13.8076 43.6849 13.9302 43.6729 13.9873C43.6609 14.0444 43.4937 14.0639 43.3016 14.0306C43.0616 13.989 42.7946 14.0649 42.4494 14.2732C42.1727 14.4399 41.8956 14.5563 41.8332 14.5318C41.7329 14.4924 40.8547 14.904 40.4013 15.203C40.3089 15.264 40.1377 15.2848 40.0208 15.2492C39.904 15.2136 39.6619 15.2805 39.483 15.3978C39.3039 15.5152 38.9514 15.65 38.6996 15.6975C38.4478 15.7449 37.8871 15.9564 37.4537 16.1678C37.0203 16.3791 36.4333 16.639 36.1492 16.7453C35.8651 16.8517 35.5029 17.06 35.3443 17.2084C35.1554 17.385 34.9347 17.4785 34.7047 17.4789C34.5115 17.4793 34.1602 17.6055 33.924 17.7592C33.6878 17.9129 33.2677 18.0956 32.9903 18.1655C32.486 18.2923 32.1602 18.5029 31.9228 18.856C31.8532 18.9592 31.8469 19.0672 31.9087 19.0958C31.9705 19.1245 31.9337 19.1671 31.827 19.1905C31.7202 19.2138 31.6096 19.1973 31.5811 19.1538C31.5046 19.0372 30.785 19.2274 30.3016 19.4918C30.0702 19.6185 29.4013 19.9967 28.8154 20.3321C27.756 20.9386 27.7509 20.9434 27.8935 21.1747C28.0345 21.4034 28.0331 21.4048 27.8139 21.2532C27.526 21.0541 27.2114 21.1264 27.0453 21.4298C26.973 21.5617 26.7745 21.718 26.6043 21.7769C26.2301 21.9063 24.7376 22.8705 24.7104 23.0006C24.6997 23.0514 24.5775 23.1034 24.4389 23.1159C24.27 23.1313 24.2085 23.1721 24.2527 23.2395C24.2912 23.2982 24.1769 23.3972 23.9775 23.4777C23.6781 23.5987 23.6601 23.6327 23.8301 23.7558C24.0147 23.8896 24.0102 23.8934 23.7333 23.8377C23.5734 23.8055 23.3303 23.8527 23.1931 23.9427C23.0559 24.0326 22.8263 24.1169 22.6827 24.13C22.4877 24.1477 22.4429 24.186 22.5055 24.2818C22.5695 24.3798 22.2286 24.6527 21.056 25.4428C20.2112 26.012 19.4654 26.5809 19.3947 26.7099C19.3242 26.8387 19.1511 27.0198 19.0101 27.1123C18.833 27.2284 18.7884 27.3348 18.8662 27.4557C18.9623 27.6051 18.9504 27.6181 18.786 27.5439C18.6351 27.4757 18.4007 27.5882 17.7093 28.0605C17.2231 28.3926 16.7632 28.7779 16.6871 28.9168C16.6111 29.0557 16.3239 29.3194 16.0489 29.5026C15.7153 29.7251 15.5614 29.894 15.5865 30.0104C15.6072 30.1062 15.5634 30.1864 15.4893 30.1885C15.4153 30.1907 15.2209 30.3209 15.0573 30.4779C14.8279 30.6981 14.798 30.7941 14.9266 30.898C15.0587 31.0046 15.0537 31.0172 14.9024 30.9585C14.6779 30.8714 13.994 31.4042 13.2755 32.2259C13.0284 32.5086 12.6759 32.8771 12.4922 33.0448C12.3084 33.2126 12.1472 33.4447 12.1338 33.5608C12.1205 33.6767 12.0083 33.8381 11.8844 33.9193C11.7606 34.0005 11.5158 34.2546 11.3404 34.4841C11.1651 34.7135 10.9387 34.9192 10.8373 34.9414C10.6243 34.988 9.8603 35.9568 9.94032 36.0789C9.96976 36.1238 9.8623 36.2065 9.70147 36.2625C9.53756 36.3197 9.38035 36.4574 9.34371 36.5759C9.30778 36.6923 9.19135 36.8324 9.08514 36.8874C8.75129 37.06 8.72565 37.1225 8.95953 37.1938C9.15889 37.2545 9.14548 37.272 8.84998 37.3377C8.57266 37.3992 8.49851 37.4727 8.42859 37.7549C8.382 37.9433 8.19127 38.2363 8.00475 38.406C7.81812 38.5757 7.6879 38.7487 7.71524 38.7904C7.74253 38.832 7.70641 38.8997 7.63504 38.9406C7.56365 38.9817 7.33733 39.1775 7.13218 39.3759C6.87158 39.6278 6.80902 39.7519 6.92495 39.7872C7.04283 39.8231 6.96662 39.9232 6.66195 40.1325C6.42599 40.2946 6.16788 40.576 6.0883 40.7577C6.00879 40.9395 5.87246 41.1349 5.78537 41.192C5.52402 41.3634 5.22914 41.9759 5.33233 42.1333C5.38527 42.2141 5.36486 42.3218 5.28687 42.373C5.20899 42.424 5.15928 42.5366 5.1764 42.6233C5.20137 42.7493 5.18968 42.757 5.11811 42.6615C5.01355 42.5221 4.69787 42.6919 4.79271 42.8366C4.82789 42.8902 4.76545 43.0331 4.65374 43.154C4.54213 43.2749 4.46621 43.445 4.48497 43.532C4.50367 43.619 4.36416 43.8312 4.17476 44.0034C3.98526 44.1758 3.82444 44.4447 3.81727 44.601C3.80993 44.7572 3.72836 44.9017 3.63594 44.9218C3.53382 44.9442 3.51234 45.0333 3.5811 45.1487C3.64344 45.2532 3.63756 45.2996 3.56788 45.2517C3.41155 45.1441 3.19664 45.4173 3.30623 45.5844C3.35016 45.6514 3.30798 45.8324 3.21247 45.9865C3.11697 46.1407 2.95313 46.403 2.84847 46.5695C2.74384 46.7359 2.62668 46.989 2.58814 47.1317C2.32393 48.1109 2.24246 48.3389 2.08967 48.5261C1.95522 48.6908 1.96518 48.7804 2.13515 48.9367C2.35475 49.1386 2.27073 49.3419 2.04194 49.1624C1.94544 49.0867 1.88037 49.1346 1.74473 49.3813C1.61927 49.6095 1.62237 49.7755 1.75578 49.979C1.89474 50.191 1.89277 50.2922 1.7477 50.3873C1.64172 50.4568 1.53151 50.6251 1.50287 50.7614C1.47424 50.8976 1.42171 51.0281 1.38612 51.0514C1.35052 51.0748 1.2127 51.6135 1.07977 52.2487C0.946934 52.8839 0.796006 53.4312 0.744416 53.465C0.692826 53.4989 0.675046 53.5638 0.704875 53.6093C0.734704 53.6547 0.685931 53.8257 0.596497 53.9891C0.507063 54.1525 0.471018 54.3428 0.516381 54.412C0.561745 54.4812 0.524485 54.6289 0.433566 54.7403C0.303638 54.8995 0.316671 54.9872 0.494351 55.1507C0.756294 55.3915 0.754841 55.7547 0.491741 55.8122C0.391353 55.8342 0.270204 56.0443 0.219875 56.2837C0.169963 56.5211 0.0870181 56.743 0.035428 56.7769C-0.0160622 56.8106 0.00971197 56.9057 0.0928645 56.9883C0.175917 57.0709 0.218354 57.2512 0.187319 57.389C0.119612 57.6894 0.284092 58.0338 0.449406 57.9379C0.514278 57.9004 0.492744 57.9765 0.401508 58.1071C0.310336 58.2378 0.280593 58.4133 0.335617 58.4972C0.394557 58.5871 0.529592 58.5918 0.664682 58.5085C0.888087 58.3709 0.889379 58.3741 0.71514 58.64C0.616829 58.7898 0.469551 58.9422 0.387867 58.9785C0.169722 59.0756 0.173121 59.5605 0.393228 59.744C0.558768 59.882 0.551448 59.8992 0.336886 59.8755C-0.0313367 59.8347 -0.08798 60.0972 0.21725 60.4302C0.389789 60.6186 0.44063 60.7445 0.363108 60.7922C-0.0379313 61.0396 -0.0783719 61.1365 0.103801 61.4143C0.211433 61.5785 0.24433 61.7693 0.180256 61.858C0.118397 61.9436 0.142159 62.127 0.233082 62.2657C0.336407 62.4233 0.342096 62.5545 0.248313 62.616C0.152432 62.6788 0.161199 62.8102 0.272682 62.9802C0.368566 63.1264 0.42675 63.3737 0.402063 63.5297C0.377312 63.6856 0.435851 63.9475 0.531991 64.1118C0.628231 64.2761 0.693525 64.5276 0.677042 64.6708C0.651118 64.8966 0.685157 64.9381 0.935103 64.9842C1.20819 65.0346 1.21125 65.0266 0.992765 64.8325C0.816411 64.6758 0.809971 64.6466 0.965188 64.7082C1.11612 64.7682 1.14641 64.7548 1.08351 64.6563C0.976998 64.4897 1.42766 64.2654 1.5977 64.4005C1.67851 64.4646 1.64737 64.5139 1.50659 64.5447C1.36681 64.5753 1.28449 64.702 1.26934 64.9098C1.25537 65.1009 1.12048 65.3243 0.931716 65.469C0.654204 65.6815 0.64196 65.7324 0.827453 65.903C1.05355 66.111 1.03552 66.4415 0.789369 66.6029C0.6275 66.709 0.870001 67.0562 1.10171 67.0501C1.26677 67.0456 1.35366 67.4274 1.28229 67.8427C1.19908 68.3263 1.36663 68.6843 1.71844 68.7753C2.01465 68.8518 2.01554 68.8595 1.74759 69.0352C1.52753 69.1794 1.50762 69.2422 1.6497 69.3442C1.74767 69.4145 1.77722 69.4617 1.71541 69.449C1.49117 69.4029 1.71325 70.3872 2.06062 70.9794C2.25643 71.313 2.39343 71.6011 2.36514 71.6196C2.33691 71.6383 2.48382 71.9391 2.69176 72.2883C2.89974 72.6374 3.04668 72.9734 3.0184 73.0349C2.94212 73.2009 3.34882 73.9898 3.57376 74.1118C3.6888 74.1743 3.82546 74.3952 3.90747 74.6513C4.036 75.0527 4.08172 75.0911 4.5227 75.1662C4.93187 75.236 5.01223 75.213 5.09152 75.0031ZM2.61413 68.95C2.60004 68.9285 2.65597 68.8666 2.73845 68.8126C2.82094 68.7585 2.91688 68.7577 2.95167 68.8107C2.9864 68.8637 2.93046 68.9255 2.82735 68.9482C2.72418 68.9707 2.62823 68.9715 2.61413 68.95ZM2.46001 66.5312C2.43016 66.4874 2.46884 66.4498 2.54602 66.4476C2.6232 66.4454 2.73531 66.5198 2.79521 66.6129C2.88892 66.7589 2.87708 66.7705 2.7092 66.6965C2.60206 66.6493 2.48995 66.5749 2.46001 66.5312ZM1.65656 65.9632C1.62066 65.9084 1.63628 65.8341 1.69127 65.798C1.74626 65.762 1.82063 65.7773 1.85652 65.8321C1.89242 65.8868 1.8768 65.9611 1.82181 65.9972C1.76683 66.0332 1.69246 66.0179 1.65656 65.9632ZM2.12983 59.8165C2.05994 59.7841 2.07556 59.7098 2.16454 59.6514C2.25353 59.5931 2.32789 59.6084 2.32979 59.6854C2.3317 59.7625 2.31608 59.8368 2.29508 59.8505C2.27409 59.8643 2.19973 59.849 2.12983 59.8165ZM0.916854 60.2559C0.863005 60.1738 0.891933 60.0587 0.981116 60.0003C1.11399 59.9132 1.13858 59.9356 1.11682 60.1248C1.10218 60.2519 1.07325 60.3669 1.05255 60.3805C1.03176 60.3941 0.970703 60.3381 0.916854 60.2559ZM1.28829 59.5142C1.25239 59.4594 1.27071 59.3834 1.3289 59.3452C1.38709 59.3071 1.43635 59.3388 1.43826 59.4159C1.44017 59.4929 1.42195 59.5689 1.39765 59.5848C1.37335 59.6008 1.32419 59.5689 1.28829 59.5142ZM1.75426 58.996C1.73221 58.8935 1.77727 58.8078 1.85472 58.8056C1.94118 58.8031 1.96462 58.8688 1.91577 58.9761C1.80896 59.2103 1.8008 59.2113 1.75426 58.996ZM1.22539 58.7641C1.16945 58.6788 1.18677 58.6071 1.26395 58.6049C1.34113 58.6027 1.43188 58.643 1.46569 58.6945C1.4995 58.7461 1.48212 58.8177 1.42713 58.8538C1.37214 58.8898 1.28133 58.8494 1.22539 58.7641ZM65.0686 16.3187C65.1485 16.2305 65.1816 16.1094 65.1423 16.0496C65.1031 15.9898 65.1156 15.95 65.1702 15.9612C65.3352 15.9952 65.2886 16.2737 65.1001 16.3796C64.9408 16.4692 64.9377 16.4632 65.0686 16.3187ZM66.1626 14.632C66.1404 14.5291 66.1351 14.4364 66.1508 14.4261C66.1665 14.4158 66.2494 14.4576 66.3349 14.519C66.4287 14.5863 66.4333 14.668 66.3466 14.7248C66.26 14.7816 66.1869 14.7448 66.1626 14.632ZM59.3001 19.1312C59.1149 19.0749 59.1114 19.0414 59.2792 18.9313C59.39 18.8587 59.5507 18.8495 59.6362 18.9108C59.727 18.976 59.7356 19.0592 59.657 19.1107C59.583 19.1592 59.4224 19.1685 59.3001 19.1312ZM0.363355 57.5583C0.29244 57.5254 0.338831 57.433 0.468128 57.3494C0.654742 57.2289 0.683073 57.2377 0.613307 57.3944C0.505699 57.6361 0.516097 57.6293 0.363355 57.5583ZM58.445 18.7289C58.4745 18.5889 58.5126 18.5843 58.5954 18.7106C58.6565 18.8037 58.7541 18.8486 58.8123 18.8105C58.8705 18.7723 58.9197 18.8045 58.9217 18.8822C58.9238 18.9691 58.8253 19.0028 58.6654 18.9698C58.4715 18.93 58.4157 18.8688 58.445 18.7289ZM67.6924 12.9024C67.7039 12.8476 67.7878 12.7875 67.8788 12.769C67.9794 12.7484 67.9711 12.7876 67.8578 12.8687C67.7552 12.9421 67.6808 12.9573 67.6924 12.9024ZM71.6734 10.0937C71.6375 10.0389 71.6531 9.96461 71.7081 9.92855C71.7631 9.8925 71.8374 9.9078 71.8733 9.96256C71.9092 10.0173 71.8936 10.0916 71.8386 10.1277C71.7836 10.1637 71.7093 10.1484 71.6734 10.0937ZM59.1504 17.9392C59.2162 17.6263 59.2795 17.6892 59.2872 18.0753C59.2904 18.2295 59.2485 18.3208 59.1943 18.278C59.1399 18.2352 59.1202 18.0829 59.1504 17.9392ZM58.7688 17.8157C58.7487 17.7155 58.7879 17.7235 58.8687 17.8364C58.9418 17.9385 58.9567 18.0127 58.9019 18.0014C58.847 17.9901 58.7871 17.9066 58.7688 17.8157ZM61.9526 15.7635C61.9188 15.7119 61.8281 15.6716 61.7509 15.6738C61.6737 15.676 61.6564 15.7477 61.7123 15.8331C61.7683 15.9184 61.8591 15.9588 61.9141 15.9227C61.9691 15.8867 61.9865 15.8151 61.9526 15.7635ZM66.6538 12.4677C66.638 12.4435 66.6519 12.3667 66.6847 12.2968C66.7175 12.2269 66.7755 12.2172 66.8135 12.2751C66.8514 12.3331 66.8376 12.41 66.7826 12.4461C66.7276 12.4821 66.6697 12.4919 66.6538 12.4677ZM60.4371 16.4464C60.3246 16.4228 60.2239 16.4451 60.2133 16.4959C60.2026 16.5468 60.2946 16.566 60.4177 16.5388C60.5955 16.4994 60.5996 16.4805 60.4371 16.4464ZM51.0491 14.5051C50.9792 14.4727 50.9671 14.4166 51.022 14.3806C51.077 14.3445 51.1792 14.3416 51.2491 14.374C51.319 14.4065 51.3312 14.4626 51.2762 14.4986C51.2212 14.5347 51.119 14.5376 51.0491 14.5051ZM7.62528 39.6743C7.60516 39.574 7.64432 39.5821 7.72516 39.6949C7.79826 39.797 7.81317 39.8712 7.75831 39.8599C7.70344 39.8486 7.64352 39.7651 7.62528 39.6743ZM10.3971 37.3707C10.4087 37.3159 10.4926 37.2557 10.5836 37.2372C10.6842 37.2167 10.6759 37.2558 10.5626 37.337C10.46 37.4103 10.3856 37.4255 10.3971 37.3707ZM9.48086 37.9946C9.412 37.8896 9.57488 37.7196 9.69228 37.7742C9.76326 37.8072 9.7512 37.8802 9.66552 37.9363C9.57983 37.9925 9.49672 38.0188 9.48086 37.9946ZM19.9021 30.2301C19.8302 30.1967 19.8593 30.1537 19.9705 30.1293C20.1871 30.0819 20.2656 30.1325 20.1218 30.2268C20.07 30.2608 19.9712 30.2622 19.9021 30.2301ZM59.3212 2.80996C59.2473 2.69726 59.2472 2.60327 59.321 2.60115C59.3948 2.59902 59.473 2.67971 59.4947 2.78037C59.5503 3.03813 59.4788 3.05039 59.3212 2.80996ZM18.3481 29.8238C18.2782 29.7914 18.2913 29.7188 18.3769 29.6626C18.4626 29.6064 18.5622 29.6052 18.5981 29.66C18.634 29.7147 18.6211 29.7872 18.5693 29.8212C18.5175 29.8551 18.418 29.8563 18.3481 29.8238ZM58.6246 2.73784C58.644 2.62746 59.0421 2.61843 59.0448 2.72837C59.0465 2.79659 58.9509 2.83651 58.8324 2.81712C58.7139 2.79773 58.6204 2.76212 58.6246 2.73784ZM58.203 2.41269C58.1671 2.35794 58.09 2.3444 58.0318 2.38255C57.9737 2.4207 57.9831 2.47855 58.053 2.51102C58.1229 2.54349 58.1999 2.55708 58.2242 2.54116C58.2485 2.52523 58.2389 2.46745 58.203 2.41269ZM25.2898 23.295C25.2578 23.2461 25.2804 23.1385 25.3401 23.0558C25.4127 22.9552 25.4616 22.9653 25.4877 23.0861C25.5303 23.2834 25.3837 23.4382 25.2898 23.295ZM27.0866 21.6747C27.0507 21.6199 27.0664 21.5456 27.1214 21.5096C27.1763 21.4735 27.2507 21.4888 27.2866 21.5436C27.3225 21.5983 27.3069 21.6726 27.2519 21.7087C27.1969 21.7447 27.1225 21.7294 27.0866 21.6747ZM58.0779 0.913627C57.9841 0.770466 58.1844 0.697753 58.3484 0.815461C58.4488 0.887545 58.4385 0.936417 58.3174 0.962901C58.2177 0.984681 58.11 0.962509 58.0779 0.913627ZM57.6979 0.511352C57.607 0.529842 57.5231 0.589997 57.5115 0.644812C57.5 0.699627 57.5744 0.684447 57.677 0.611076C57.7903 0.529931 57.7986 0.490801 57.6979 0.511352Z" fill="white"/>
</svg>
