<svg width="308" height="30" viewBox="0 0 308 30" fill="none" xmlns="http://www.w3.org/2000/svg">

<path d="M11.7814 8.07114C11.9228 8.24785 11.9935 8.47758 11.9935 8.76032C12.0288 9.00772 11.9935 9.21978 11.8875 9.39649C11.7108 9.78526 11.4103 9.92663 10.9862 9.8206C10.244 9.64389 9.4665 9.5732 8.65361 9.60855C7.84073 9.64389 7.02784 9.96198 6.21496 10.5628C5.40208 11.1636 4.76591 12.0472 4.30645 13.2135C3.847 14.3445 3.61727 15.5285 3.61727 16.7655C3.61727 17.9671 3.90001 19.0097 4.46549 19.8933C5.06632 20.7415 5.82619 21.36 6.7451 21.7488C7.31059 21.9962 7.94676 22.1376 8.65361 22.1729C9.36047 22.2082 10.0673 22.1906 10.7742 22.1199C11.5164 22.0139 12.2409 21.8725 12.9478 21.6958C13.6546 21.4837 14.3261 21.254 14.9623 21.0066C15.1744 20.9359 15.3687 20.9536 15.5455 21.0596C15.7575 21.1656 15.8989 21.307 15.9696 21.4837C16.1463 21.9432 16.0579 22.4026 15.7045 22.8621C15.2804 23.3215 14.7149 23.728 14.008 24.0814C13.3012 24.4348 12.5236 24.7176 11.6754 24.9296C10.8272 25.1417 9.9613 25.2654 9.07773 25.3007C8.19416 25.3007 7.3636 25.1947 6.58606 24.9827C5.49043 24.6999 4.55385 24.2935 3.77631 23.7633C3.03411 23.1978 2.41561 22.5617 1.92081 21.8548C1.42602 21.1126 1.05492 20.3351 0.807517 19.5222C0.560117 18.674 0.418746 17.8081 0.383403 16.9245C0.312718 14.8039 0.71916 12.8954 1.60273 11.199C2.52164 9.50252 3.79398 8.24785 5.41975 7.43497C6.6214 6.83414 7.82306 6.60441 9.02471 6.74578C10.2617 6.85181 11.1806 7.2936 11.7814 8.07114Z" fill="white"/>
<path d="M23.4843 2.66369C23.661 6.51605 23.9614 10.5098 24.3856 14.6449C24.8097 18.7447 25.2691 22.6677 25.7639 26.414C25.87 27.9691 25.4458 28.7643 24.4916 28.7997C24.2795 28.7997 24.0675 28.729 23.8554 28.5876C23.6434 28.4109 23.449 28.1988 23.2723 27.9514C23.0956 27.704 22.9188 27.439 22.7421 27.1562C22.6008 26.8735 22.5124 26.6261 22.4771 26.414C22.1943 24.6116 21.9292 22.703 21.6818 20.6885C21.4344 18.674 21.2047 16.6594 20.9927 14.6449C20.8159 12.595 20.6569 10.5981 20.5155 8.65429C20.3742 6.71044 20.2858 4.92563 20.2505 3.29986C20.3211 2.45164 20.4448 1.74478 20.6216 1.1793C20.7983 0.57847 21.1694 0.295728 21.7349 0.33107C22.3357 0.366412 22.7598 0.613812 23.0072 1.07327C23.2899 1.49738 23.449 2.02752 23.4843 2.66369Z" fill="white"/>
<path d="M39.0166 5.84454C38.946 6.19797 38.6986 6.39236 38.2744 6.4277C37.8503 6.46304 37.4969 6.48071 37.2142 6.48071C36.3306 6.51605 35.4117 6.60441 34.4574 6.74578C33.5385 6.88715 32.5666 7.09921 31.5416 7.38195C31.1175 7.52333 30.6581 7.47031 30.1633 7.22291C29.6685 6.97551 29.3681 6.48071 29.262 5.73851C29.262 5.45577 29.3681 5.22604 29.5801 5.04933C29.7922 4.87262 30.0396 4.71357 30.3223 4.5722C30.7818 4.36015 31.3296 4.18343 31.9658 4.04206C32.6019 3.86535 33.2381 3.74165 33.8743 3.67096C34.5458 3.60028 35.1819 3.5826 35.7828 3.61795C36.3836 3.61795 36.8784 3.67096 37.2672 3.77699C37.8327 3.9537 38.2744 4.21877 38.5925 4.5722C38.946 4.92563 39.0873 5.34974 39.0166 5.84454ZM37.7973 23.4983C38.0447 24.0637 38.1684 24.6822 38.1684 25.3538C38.2038 25.9899 38.027 26.4317 37.6383 26.6791C37.1435 26.9972 36.6133 26.9795 36.0479 26.6261C35.4824 26.2727 35.0583 25.7955 34.7755 25.1947C34.3867 24.4525 34.0863 23.5513 33.8743 22.491C33.6622 21.3954 33.5032 20.3174 33.3971 19.2571C33.2911 18.1968 33.2204 17.2072 33.1851 16.2883C33.1851 15.3694 33.1851 14.6802 33.1851 14.2208C33.2204 13.726 33.3618 13.2665 33.6092 12.8424C33.8566 12.4183 34.1747 12.1709 34.5635 12.1002C35.1996 12.1356 35.7121 12.436 36.1009 13.0015C36.4896 13.5316 36.6663 14.2031 36.631 15.016C36.631 15.6522 36.6487 16.359 36.684 17.1366C36.7194 17.9141 36.79 18.6916 36.8961 19.4692C37.0021 20.2467 37.1258 21.0066 37.2672 21.7488C37.4085 22.4556 37.5853 23.0388 37.7973 23.4983Z" fill="white"/>
<path d="M55.1429 13.8497C54.8955 13.9911 54.5951 14.0441 54.2416 14.0087C53.8882 13.938 53.5878 13.7083 53.3404 13.3195C52.7749 12.5773 52.0857 12.2062 51.2729 12.2062C50.5307 12.2062 49.8591 12.383 49.2583 12.7364C48.6928 13.0545 48.1804 13.4963 47.7209 14.0617C47.2968 14.5919 46.9434 15.1927 46.6606 15.8642C46.3779 16.5357 46.1835 17.2072 46.0775 17.8788C45.9008 19.1158 46.1128 20.1584 46.7136 21.0066C47.3145 21.8548 48.251 22.2789 49.5234 22.2789C50.5483 22.3143 51.697 22.1199 52.9693 21.6958C54.277 21.2363 55.4963 20.6532 56.6273 19.9463C57.1221 19.7343 57.5815 19.6106 58.0057 19.5752C58.4298 19.5399 58.7832 19.7519 59.0659 20.2114C59.4194 20.7769 59.331 21.36 58.8009 21.9608C58.2707 22.5263 57.5639 23.0388 56.6803 23.4983C55.7967 23.9931 54.8601 24.4348 53.8705 24.8236C52.9163 25.177 51.9444 25.4421 50.9548 25.6188C49.9652 25.7602 48.9756 25.7602 47.986 25.6188C47.0317 25.4775 46.1305 25.1417 45.2823 24.6116C43.9392 23.6926 43.1263 22.385 42.8436 20.6885C42.5609 18.9921 42.6846 17.2426 43.2147 15.4401C43.4268 14.7686 43.7272 14.0971 44.1159 13.4256C44.5047 12.7187 44.9642 12.0825 45.4943 11.5171C46.0598 10.9516 46.6783 10.4744 47.3498 10.0857C48.0213 9.66156 48.7635 9.37882 49.5764 9.23745C50.8841 9.02539 52.1387 9.16676 53.3404 9.66156C54.5421 10.121 55.3373 10.9869 55.726 12.2593C55.7967 12.542 55.7967 12.8424 55.726 13.1605C55.6554 13.4432 55.461 13.673 55.1429 13.8497Z" fill="white"/>
<path d="M76.7358 10.1387C76.8772 10.1033 77.0892 10.0857 77.372 10.0857C77.6547 10.0503 77.9198 10.068 78.1672 10.1387C78.4499 10.174 78.6797 10.2624 78.8564 10.4038C79.0684 10.5098 79.1921 10.6512 79.2275 10.8279C79.2981 11.252 79.2275 11.6408 79.0154 11.9942C78.8387 12.3123 78.5029 12.595 78.0081 12.8424C76.6651 13.4786 75.2691 14.2031 73.82 15.016C72.371 15.7935 71.134 16.5004 70.109 17.1366C70.7452 17.5607 71.4697 18.0378 72.2826 18.5679C73.1308 19.0981 73.9967 19.6636 74.8803 20.2644C75.7639 20.8299 76.6474 21.4484 77.531 22.1199C78.4146 22.7561 79.2451 23.3922 80.0227 24.0284C80.7295 24.6292 80.8532 25.177 80.3938 25.6718C80.1817 25.9192 79.8283 26.096 79.3335 26.202C78.874 26.308 78.4323 26.255 78.0081 26.0429C77.2306 25.6542 76.3824 25.1947 75.4635 24.6646C74.5446 24.0991 73.608 23.5336 72.6537 22.9681C71.6995 22.3673 70.7629 21.7841 69.844 21.2186C68.9604 20.6178 68.1475 20.07 67.4053 19.5752C67.5467 20.8122 67.6704 22.0492 67.7764 23.2862C67.9178 24.5232 68.0415 25.7602 68.1475 26.9972C68.3596 27.6687 68.3419 28.2165 68.0945 28.6406C67.8471 29.0647 67.4407 29.2591 66.8752 29.2238C66.2743 29.1178 65.8326 28.888 65.5498 28.5346C65.2671 28.1458 65.055 27.651 64.9136 27.0502C64.7016 25.6012 64.4542 23.887 64.1714 21.9078C63.924 19.9286 63.659 17.8788 63.3762 15.7582C63.0935 13.6376 62.8107 11.5701 62.528 9.55553C62.2806 7.54099 62.0509 5.75619 61.8388 4.2011C61.7681 3.70631 61.7151 3.17616 61.6798 2.61068C61.6798 2.00985 61.8742 1.62108 62.2629 1.44437C62.7931 1.23231 63.3409 1.35601 63.9064 1.81547C64.4719 2.23958 64.896 2.89342 65.1787 3.77699C65.4615 5.40276 65.7442 7.1699 66.0269 9.07841C66.3097 10.9869 66.5924 13.0015 66.8752 15.122C67.582 14.6979 68.3949 14.2385 69.3138 13.7437C70.2681 13.2135 71.2047 12.7187 72.1236 12.2593C73.0778 11.7645 73.9614 11.3227 74.7743 10.9339C75.5872 10.5451 76.241 10.2801 76.7358 10.1387Z" fill="white"/>
<path d="M120.341 6.37469C116.701 6.19797 113.202 6.48071 109.844 7.22291C106.487 7.96511 103.165 8.97238 99.8777 10.2447C99.0295 10.5628 98.3757 10.5275 97.9162 10.1387C97.4921 9.74992 97.28 9.36115 97.28 8.97238C97.5274 8.30086 97.9692 7.75305 98.6054 7.32894C105.851 3.79466 113.096 2.48698 120.341 3.40589C120.695 3.51192 120.977 3.77699 121.189 4.2011C121.437 4.58987 121.525 4.92563 121.454 5.20837C121.384 5.5618 121.278 5.86221 121.136 6.10961C120.995 6.32167 120.73 6.41003 120.341 6.37469ZM112.813 24.8766C112.813 25.2654 112.672 25.6188 112.389 25.9369C112.142 26.2197 111.824 26.3964 111.435 26.467C110.728 26.5731 110.268 26.4494 110.056 26.096C109.844 25.7425 109.721 25.3361 109.685 24.8766C109.65 22.4026 109.597 19.9463 109.526 17.5077C109.491 15.0337 109.385 12.5597 109.208 10.0857C109.208 9.9443 109.191 9.78526 109.155 9.60855C109.12 9.39649 109.12 9.20211 109.155 9.02539C109.191 8.81333 109.261 8.63662 109.367 8.49525C109.509 8.35388 109.721 8.24785 110.003 8.17717C110.816 8.03579 111.399 8.17717 111.753 8.60128C112.106 8.99005 112.283 9.37882 112.283 9.76759C112.566 12.3123 112.742 14.8393 112.813 17.3486C112.884 19.858 112.884 22.3673 112.813 24.8766Z" fill="white"/>
<path d="M128.408 3.98905C128.408 4.83727 128.39 5.79153 128.355 6.85181C128.355 7.91209 128.355 9.00772 128.355 10.1387C128.39 11.2697 128.408 12.436 128.408 13.6376C128.443 14.8393 128.479 15.9879 128.514 17.0835C128.867 16.3767 129.292 15.6875 129.786 15.016C130.281 14.3091 130.829 13.6906 131.43 13.1605C132.066 12.6304 132.72 12.2062 133.391 11.8882C134.098 11.5701 134.858 11.411 135.671 11.411C136.555 11.411 137.332 11.6938 138.004 12.2593C138.71 12.8247 139.311 13.5846 139.806 14.5389C140.336 15.4578 140.778 16.5004 141.131 17.6667C141.485 18.7977 141.768 19.964 141.98 21.1656C142.227 22.3319 142.404 23.4629 142.51 24.5585C142.616 25.6188 142.704 26.5377 142.775 27.3153C142.775 27.8808 142.634 28.3402 142.351 28.6936C142.068 29.0471 141.732 29.2238 141.343 29.2238C141.061 29.2238 140.707 29.0471 140.283 28.6936C139.894 28.3049 139.612 27.8454 139.435 27.3153C139.329 26.8912 139.223 26.2727 139.117 25.4598C139.011 24.6469 138.887 23.781 138.746 22.8621C138.604 21.9078 138.428 20.9536 138.216 19.9993C138.004 19.0451 137.739 18.1968 137.42 17.4546C137.138 16.6771 136.784 16.0763 136.36 15.6522C135.936 15.228 135.441 15.069 134.876 15.175C133.992 15.3517 133.215 15.9702 132.543 17.0305C131.907 18.0908 131.341 19.2925 130.847 20.6355C130.387 21.9785 129.998 23.3392 129.68 24.7176C129.398 26.096 129.186 27.2092 129.044 28.0575C128.903 28.6936 128.708 29.1354 128.461 29.3828C128.249 29.5949 128.002 29.7009 127.719 29.7009C127.436 29.7009 127.171 29.5595 126.924 29.2768C126.712 28.9941 126.5 28.6583 126.287 28.2695C126.111 27.8454 125.952 27.4213 125.81 26.9972C125.669 26.5377 125.581 26.149 125.545 25.8309C125.369 23.9224 125.227 22.1022 125.121 20.3704C125.015 18.6033 124.927 16.8361 124.856 15.069C124.821 13.3019 124.803 11.4994 124.803 9.66156C124.803 7.7884 124.838 5.79153 124.909 3.67096C124.909 1.90382 125.545 1.10861 126.818 1.28533C127.242 1.35601 127.613 1.6741 127.931 2.23958C128.249 2.76972 128.408 3.35288 128.408 3.98905Z" fill="white"/>
<path d="M159.426 15.016C158.048 15.8289 156.563 16.465 154.973 16.9245C153.382 17.3486 151.668 17.5607 149.83 17.5607C149.901 18.7977 150.254 19.7873 150.891 20.5295C151.527 21.2363 152.322 21.6604 153.276 21.8018C153.842 21.8725 154.407 21.8548 154.973 21.7488C155.574 21.6428 156.121 21.4837 156.616 21.2717C157.146 21.0243 157.623 20.7592 158.048 20.4765C158.472 20.1937 158.843 19.911 159.161 19.6282C159.479 19.3455 159.815 19.1688 160.168 19.0981C160.522 18.9921 160.787 18.9744 160.963 19.0451C161.458 19.2218 161.635 19.7519 161.493 20.6355C160.928 21.7665 160.115 22.7384 159.055 23.5513C157.994 24.3288 156.811 24.8236 155.503 25.0357C154.372 25.2477 153.206 25.1947 152.004 24.8766C150.802 24.5585 149.724 23.94 148.77 23.0211C147.957 22.2082 147.339 21.254 146.915 20.1584C146.49 19.0627 146.225 17.9318 146.119 16.7655C146.013 15.6698 146.102 14.6272 146.384 13.6376C146.702 12.648 147.18 11.7821 147.816 11.0399C148.452 10.2624 149.247 9.62622 150.201 9.13142C151.156 8.63662 152.269 8.35388 153.541 8.28319C155.061 8.17717 156.439 8.45991 157.676 9.13142C158.913 9.80293 159.779 10.7395 160.274 11.9412C160.557 12.6127 160.628 13.1958 160.486 13.6906C160.38 14.1854 160.027 14.6272 159.426 15.016ZM153.329 11.411C152.976 11.4817 152.587 11.6054 152.163 11.7821C151.774 11.9588 151.403 12.1886 151.05 12.4713C150.732 12.7187 150.431 13.0191 150.148 13.3726C149.901 13.6906 149.76 14.0617 149.724 14.4859C150.325 14.4859 150.979 14.4328 151.686 14.3268C152.428 14.2208 153.135 14.0971 153.806 13.9557C154.513 13.779 155.149 13.5846 155.715 13.3726C156.316 13.1605 156.811 12.9308 157.199 12.6834C156.917 12.0119 156.386 11.6054 155.609 11.464C154.867 11.2873 154.107 11.2697 153.329 11.411Z" fill="white"/>
<path d="M185.872 28.0045C185.519 27.8631 185.148 27.598 184.759 27.2092C184.406 26.8205 184.194 26.4847 184.123 26.202C183.946 25.4951 183.752 24.6292 183.54 23.6043C183.328 22.5793 183.116 21.4837 182.904 20.3174C182.692 19.1511 182.48 17.9671 182.268 16.7655C182.091 15.5285 181.914 14.3622 181.737 13.2665C181.561 12.1356 181.419 11.1283 181.313 10.2447C181.207 9.36115 181.137 8.65429 181.101 8.12415C181.101 7.55867 181.296 7.24058 181.684 7.1699C182.603 7.06387 183.257 7.39962 183.646 8.17717C183.823 8.81334 184.017 9.53786 184.229 10.3507C184.441 11.1636 184.653 12.0472 184.865 13.0015C185.713 12.6834 186.473 12.2769 187.145 11.7821C187.816 11.2873 188.364 10.7572 188.788 10.1917C189.248 9.59088 189.566 8.99005 189.743 8.38922C189.955 7.75305 189.99 7.13455 189.849 6.53373C189.672 5.86221 189.177 5.36741 188.364 5.04933C187.551 4.73124 186.632 4.5722 185.607 4.5722C184.194 4.5722 182.921 4.83727 181.79 5.36741C180.695 5.86221 179.687 6.48071 178.769 7.22291C178.344 7.541 177.885 7.64702 177.39 7.54099C176.86 7.39962 176.507 7.06387 176.33 6.53373C176.33 6.03893 176.418 5.61481 176.595 5.26139C176.772 4.90796 177.001 4.58987 177.284 4.30713C178.38 3.17616 179.67 2.38095 181.154 1.92149C182.674 1.46204 184.264 1.23231 185.926 1.23231C187.269 1.23231 188.559 1.44437 189.796 1.86848C191.068 2.29259 192.146 3.05246 193.029 4.14809C193.454 4.85495 193.666 5.59714 193.666 6.37469C193.701 7.15222 193.595 7.91209 193.347 8.65429C193.1 9.39649 192.747 10.1033 192.287 10.7749C191.863 11.4464 191.421 12.0295 190.962 12.5243C191.845 12.4536 192.747 12.542 193.666 12.7894C194.584 13.0015 195.397 13.3902 196.104 13.9557C196.846 14.4859 197.447 15.1927 197.907 16.0763C198.366 16.9598 198.596 18.0201 198.596 19.2571C198.596 20.6708 198.278 21.9608 197.642 23.1272C197.041 24.2935 196.228 25.2831 195.203 26.096C194.213 26.9088 193.065 27.545 191.757 28.0045C190.485 28.4639 189.159 28.6936 187.781 28.6936C187.18 28.6936 186.703 28.5169 186.35 28.1635C186.173 28.1635 186.014 28.1105 185.872 28.0045ZM185.66 16.8715C185.943 18.2499 186.208 19.6812 186.456 21.1656C186.703 22.65 186.968 24.1344 187.251 25.6188H187.463C188.24 25.6188 189.089 25.4775 190.008 25.1947C190.962 24.912 191.845 24.5055 192.658 23.9754C193.471 23.4099 194.143 22.7384 194.673 21.9608C195.203 21.148 195.45 20.2467 195.415 19.2571C195.238 18.3736 194.832 17.702 194.196 17.2426C193.56 16.7831 192.782 16.4827 191.863 16.3413C190.98 16.2 189.99 16.2 188.894 16.3413C187.834 16.4474 186.756 16.6241 185.66 16.8715Z" fill="white"/>
<path d="M206.603 11.7821C206.391 12.7364 206.179 13.7967 205.967 14.963C205.755 16.0939 205.596 17.1896 205.49 18.2499C205.419 19.3101 205.419 20.2644 205.49 21.1126C205.596 21.9608 205.826 22.5617 206.179 22.9151C206.78 23.0211 207.469 22.7737 208.247 22.1729C209.024 21.5367 209.784 20.7415 210.526 19.7873C211.268 18.833 211.94 17.8081 212.541 16.7124C213.142 15.5815 213.566 14.5919 213.813 13.7437C213.954 13.3195 214.078 12.8778 214.184 12.4183C214.29 11.9588 214.343 11.4817 214.343 10.9869C214.343 10.7042 214.52 10.4391 214.873 10.1917C215.262 9.90896 215.58 9.74992 215.828 9.71458C216.004 9.67923 216.199 9.71458 216.411 9.8206C216.658 9.92663 216.87 10.0857 217.047 10.2977C217.259 10.4744 217.436 10.7042 217.577 10.9869C217.754 11.2343 217.842 11.4994 217.842 11.7821C217.913 12.8424 218.019 14.0087 218.16 15.2811C218.302 16.5534 218.461 17.8257 218.637 19.0981C218.849 20.3704 219.061 21.6074 219.273 22.8091C219.486 24.0107 219.698 25.0887 219.91 26.0429C220.016 26.4317 219.91 26.8735 219.592 27.3683C219.273 27.8631 218.92 28.1635 218.531 28.2695C218.213 28.3402 217.877 28.3049 217.524 28.1635C217.206 28.0221 216.959 27.7394 216.782 27.3153C216.605 26.8205 216.428 26.2197 216.252 25.5128C216.11 24.7706 215.969 24.0107 215.828 23.2332C215.722 22.4203 215.616 21.6604 215.509 20.9536C215.403 20.2114 215.333 19.5929 215.297 19.0981C214.767 20.0523 214.131 21.0243 213.389 22.0139C212.682 22.9681 211.905 23.8517 211.056 24.6646C210.243 25.4421 209.377 26.0606 208.459 26.5201C207.575 26.9442 206.656 27.1032 205.702 26.9972C204.288 26.8205 203.21 25.4951 202.468 23.0211C202.185 22.0315 202.044 20.9359 202.044 19.7343C202.079 18.5326 202.168 17.3486 202.309 16.1823C202.486 14.9806 202.68 13.8497 202.892 12.7894C203.139 11.7291 203.352 10.8632 203.528 10.1917C203.599 9.90896 203.74 9.66156 203.952 9.4495C204.164 9.20211 204.412 9.11375 204.695 9.18443C205.225 9.29046 205.702 9.60855 206.126 10.1387C206.585 10.6688 206.744 11.2166 206.603 11.7821Z" fill="white"/>
<path d="M235.822 13.2665C236.494 13.2312 237.165 13.3902 237.837 13.7437C238.508 14.0971 238.844 14.6449 238.844 15.3871C238.773 15.9879 238.438 16.3767 237.837 16.5534C237.271 16.6948 236.812 16.7655 236.458 16.7655C235.751 16.7655 234.992 16.7831 234.179 16.8185C233.366 16.8538 232.535 16.9068 231.687 16.9775C231.616 18.1438 231.546 19.2395 231.475 20.2644C231.44 21.2893 231.404 22.2082 231.369 23.0211C231.334 23.7987 231.316 24.4348 231.316 24.9296C231.316 25.4244 231.334 25.6895 231.369 25.7249C232.147 25.5835 232.977 25.3538 233.861 25.0357C234.78 24.6822 235.681 24.3111 236.564 23.9224C237.483 23.4983 238.367 23.0741 239.215 22.65C240.099 22.1906 240.929 21.7665 241.707 21.3777C242.06 21.201 242.378 21.148 242.661 21.2186C242.979 21.2893 243.173 21.4484 243.244 21.6958C243.315 22.0845 243.262 22.5617 243.085 23.1272C242.908 23.6926 242.59 24.2051 242.131 24.6646C241.601 25.0887 240.894 25.5835 240.01 26.149C239.162 26.6791 238.243 27.1916 237.254 27.6864C236.264 28.1812 235.257 28.623 234.232 29.0117C233.242 29.3652 232.359 29.5772 231.581 29.6479C230.415 29.7539 229.531 29.4358 228.93 28.6936C228.33 27.9514 227.994 27.0149 227.923 25.8839C227.852 24.7529 227.835 23.4452 227.87 21.9608C227.941 20.4764 228.011 18.9037 228.082 17.2426C227.411 17.3133 226.757 17.384 226.121 17.4546C225.52 17.49 224.937 17.543 224.371 17.6137C223.912 17.6137 223.399 17.5077 222.834 17.2956C222.304 17.0835 222.038 16.6771 222.038 16.0763C222.038 15.8642 222.127 15.5815 222.304 15.228C222.48 14.8746 222.869 14.6096 223.47 14.4328C224.919 14.1854 226.527 13.9734 228.294 13.7967C228.4 12.1356 228.524 10.5275 228.665 8.97238C228.807 7.4173 228.93 6.00359 229.036 4.73125C229.072 4.30713 229.195 3.93603 229.407 3.61795C229.62 3.29986 229.849 3.14082 230.097 3.14082C230.697 3.10548 231.263 3.26452 231.793 3.61795C232.359 3.93603 232.641 4.30713 232.641 4.73125C232.5 5.9329 232.359 7.2936 232.217 8.81334C232.111 10.3331 232.005 11.8882 231.899 13.4786C232.606 13.4079 233.277 13.3726 233.914 13.3726C234.585 13.3372 235.221 13.3019 235.822 13.2665Z" fill="white"/>
<path d="M257.463 13.2665C258.134 13.2312 258.806 13.3902 259.477 13.7437C260.149 14.0971 260.485 14.6449 260.485 15.3871C260.414 15.9879 260.078 16.3767 259.477 16.5534C258.912 16.6948 258.452 16.7655 258.099 16.7655C257.392 16.7655 256.632 16.7831 255.819 16.8185C255.006 16.8538 254.176 16.9068 253.328 16.9775C253.257 18.1438 253.186 19.2395 253.116 20.2644C253.08 21.2893 253.045 22.2082 253.01 23.0211C252.974 23.7987 252.957 24.4348 252.957 24.9296C252.957 25.4244 252.974 25.6895 253.01 25.7249C253.787 25.5835 254.618 25.3538 255.501 25.0357C256.42 24.6822 257.321 24.3111 258.205 23.9224C259.124 23.4983 260.007 23.0741 260.856 22.65C261.739 22.1906 262.57 21.7665 263.347 21.3777C263.701 21.201 264.019 21.148 264.302 21.2186C264.62 21.2893 264.814 21.4484 264.885 21.6958C264.955 22.0845 264.902 22.5617 264.726 23.1272C264.549 23.6926 264.231 24.2051 263.771 24.6646C263.241 25.0887 262.534 25.5835 261.651 26.149C260.803 26.6791 259.884 27.1916 258.894 27.6864C257.905 28.1812 256.897 28.623 255.872 29.0117C254.883 29.3652 253.999 29.5772 253.222 29.6479C252.055 29.7539 251.172 29.4358 250.571 28.6936C249.97 27.9514 249.634 27.0149 249.564 25.8839C249.493 24.7529 249.475 23.4452 249.511 21.9608C249.581 20.4764 249.652 18.9037 249.723 17.2426C249.051 17.3133 248.397 17.384 247.761 17.4546C247.16 17.49 246.577 17.543 246.012 17.6137C245.552 17.6137 245.04 17.5077 244.474 17.2956C243.944 17.0835 243.679 16.6771 243.679 16.0763C243.679 15.8642 243.767 15.5815 243.944 15.228C244.121 14.8746 244.51 14.6096 245.11 14.4328C246.559 14.1854 248.168 13.9734 249.935 13.7967C250.041 12.1356 250.164 10.5275 250.306 8.97238C250.447 7.4173 250.571 6.00359 250.677 4.73125C250.712 4.30713 250.836 3.93603 251.048 3.61795C251.26 3.29986 251.49 3.14082 251.737 3.14082C252.338 3.10548 252.903 3.26452 253.434 3.61795C253.999 3.93603 254.282 4.30713 254.282 4.73125C254.14 5.9329 253.999 7.2936 253.858 8.81334C253.752 10.3331 253.646 11.8882 253.54 13.4786C254.247 13.4079 254.918 13.3726 255.554 13.3726C256.226 13.3372 256.862 13.3019 257.463 13.2665Z" fill="white"/>
<path d="M279.262 8.97238C280.323 9.36115 281.206 9.9443 281.913 10.7218C282.655 11.4994 283.221 12.383 283.609 13.3726C283.998 14.3268 284.21 15.3164 284.246 16.3413C284.316 17.3663 284.21 18.3205 283.928 19.2041C283.539 20.1937 283.044 21.1656 282.443 22.1199C281.842 23.0741 281.153 23.9224 280.376 24.6646C279.598 25.4068 278.715 26.0076 277.725 26.467C276.735 26.9265 275.64 27.1562 274.438 27.1562C272.989 27.1562 271.77 26.8205 270.78 26.149C269.79 25.4775 269.013 24.6116 268.447 23.5513C267.882 22.491 267.511 21.2893 267.334 19.9463C267.193 18.6033 267.228 17.2603 267.44 15.9172C267.582 14.9276 267.811 13.9734 268.129 13.0545C268.483 12.1002 268.925 11.2697 269.455 10.5628C269.985 9.8206 270.586 9.21978 271.257 8.76032C271.964 8.30087 272.759 8.07114 273.643 8.07114C274.138 8.07114 274.756 8.17717 275.498 8.38922C276.24 8.56594 276.93 8.83101 277.566 9.18443C278.025 8.76032 278.591 8.68964 279.262 8.97238ZM277.248 12.8424C276.859 12.595 276.4 12.2769 275.869 11.8882C275.375 11.464 274.933 11.252 274.544 11.252C274.12 11.252 273.696 11.4464 273.272 11.8351C272.883 12.2239 272.53 12.6834 272.211 13.2135C271.929 13.7083 271.681 14.2208 271.469 14.7509C271.257 15.2811 271.116 15.7052 271.045 16.0233C270.939 16.5534 270.868 17.1896 270.833 17.9318C270.798 18.674 270.851 19.4162 270.992 20.1584C271.133 20.8652 271.399 21.5191 271.787 22.1199C272.211 22.6854 272.83 23.0918 273.643 23.3392C274.138 23.4806 274.721 23.4806 275.392 23.3392C276.064 23.1625 276.718 22.8621 277.354 22.438C278.025 22.0139 278.644 21.4484 279.209 20.7415C279.81 20.0347 280.27 19.2218 280.588 18.3029C280.941 17.2779 280.941 16.2176 280.588 15.122C280.27 13.9911 279.598 13.1782 278.573 12.6834C278.326 12.8601 278.078 12.9484 277.831 12.9484C277.584 12.9484 277.389 12.9131 277.248 12.8424Z" fill="white"/>
<path d="M291.895 9.97965C292.001 10.5098 292.107 11.1106 292.214 11.7821C292.355 12.4183 292.496 13.0898 292.638 13.7967C292.779 14.4682 292.903 15.1574 293.009 15.8642C293.115 16.5711 293.203 17.2426 293.274 17.8788C293.698 16.9598 294.157 15.9879 294.652 14.963C295.147 13.938 295.677 13.0015 296.243 12.1532C296.843 11.2697 297.462 10.5451 298.098 9.97965C298.77 9.41416 299.494 9.13142 300.272 9.13142C301.438 9.13142 302.41 9.55553 303.187 10.4038C304 11.252 304.672 12.3123 305.202 13.5846C305.767 14.8216 306.209 16.1293 306.527 17.5077C306.845 18.886 307.11 20.1054 307.323 21.1656C307.535 22.1199 307.11 22.8267 306.05 23.2862C305.555 23.5336 305.184 23.5689 304.937 23.3922C304.69 23.2155 304.548 23.0388 304.513 22.8621C304.336 22.438 304.106 21.6958 303.824 20.6355C303.576 19.5752 303.276 18.4973 302.922 17.4016C302.604 16.306 302.233 15.3517 301.809 14.5389C301.385 13.726 300.908 13.3549 300.378 13.4256C299.741 13.4609 299.176 13.938 298.681 14.8569C298.257 15.5991 297.815 16.4297 297.356 17.3486C296.932 18.2322 296.508 19.1511 296.084 20.1054C295.659 21.0243 295.235 21.9608 294.811 22.9151C294.422 23.834 294.051 24.6822 293.698 25.4598C293.451 25.7072 293.132 25.8839 292.744 25.9899C292.39 26.0606 292.019 26.0253 291.63 25.8839C291.277 25.7779 290.994 25.6012 290.782 25.3538C290.57 25.1064 290.464 24.859 290.464 24.6116C290.146 21.8548 289.81 19.3455 289.457 17.0835C289.139 14.8216 288.715 12.5067 288.184 10.1387C287.937 9.32581 287.884 8.68964 288.025 8.23018C288.202 7.73538 288.732 7.541 289.616 7.64702C290.853 7.85908 291.613 8.63662 291.895 9.97965Z" fill="white"/>
</svg>
