<svg width="23" height="23" viewBox="0 0 23 23" fill="none" xmlns="http://www.w3.org/2000/svg">
<path d="M21.735 0H1.265C0.929501 0 0.607744 0.133277 0.37051 0.37051C0.133277 0.607744 0 0.929501 0 1.265V21.735C0 21.9011 0.0327203 22.0656 0.0962925 22.2191C0.159865 22.3726 0.253044 22.512 0.37051 22.6295C0.487976 22.747 0.627429 22.8401 0.780906 22.9037C0.934382 22.9673 1.09888 23 1.265 23H12.282V14.0875H9.292V10.6375H12.282V8.05C12.2201 7.44252 12.2918 6.82885 12.4921 6.25202C12.6925 5.67519 13.0166 5.14918 13.4417 4.71087C13.8669 4.27257 14.3828 3.93259 14.9532 3.71477C15.5237 3.49696 16.1349 3.40659 16.744 3.45C17.6391 3.44449 18.5337 3.49057 19.4235 3.588V6.693H17.595C16.146 6.693 15.87 7.383 15.87 8.3835V10.603H19.32L18.8715 14.053H15.87V23H21.735C21.9011 23 22.0656 22.9673 22.2191 22.9037C22.3726 22.8401 22.512 22.747 22.6295 22.6295C22.747 22.512 22.8401 22.3726 22.9037 22.2191C22.9673 22.0656 23 21.9011 23 21.735V1.265C23 1.09888 22.9673 0.934382 22.9037 0.780906C22.8401 0.627429 22.747 0.487976 22.6295 0.37051C22.512 0.253044 22.3726 0.159865 22.2191 0.0962925C22.0656 0.0327203 21.9011 0 21.735 0Z" fill="#757575"/>
</svg>
