<svg width="23" height="23" viewBox="0 0 23 23" fill="none" xmlns="http://www.w3.org/2000/svg">
<path d="M11.5 5.75C10.3628 5.75 9.25105 6.08723 8.30547 6.71905C7.35989 7.35087 6.6229 8.2489 6.18769 9.29957C5.75249 10.3502 5.63862 11.5064 5.86048 12.6218C6.08235 13.7372 6.62998 14.7617 7.43414 15.5659C8.23829 16.37 9.26284 16.9177 10.3782 17.1395C11.4936 17.3614 12.6498 17.2475 13.7004 16.8123C14.7511 16.3771 15.6491 15.6401 16.281 14.6945C16.9128 13.7489 17.25 12.6372 17.25 11.5C17.25 9.97501 16.6442 8.51247 15.5659 7.43414C14.4875 6.3558 13.025 5.75 11.5 5.75ZM11.5 14.95C10.8177 14.95 10.1506 14.7477 9.58328 14.3686C9.01593 13.9895 8.57374 13.4507 8.31262 12.8203C8.05149 12.1899 7.98317 11.4962 8.11629 10.8269C8.24941 10.1577 8.57799 9.54297 9.06048 9.06048C9.54297 8.57799 10.1577 8.24941 10.8269 8.11629C11.4962 7.98317 12.1899 8.05149 12.8203 8.31262C13.4507 8.57374 13.9895 9.01593 14.3686 9.58328C14.7477 10.1506 14.95 10.8177 14.95 11.5C14.95 12.415 14.5865 13.2925 13.9395 13.9395C13.2925 14.5865 12.415 14.95 11.5 14.95ZM17.25 4.6C17.0226 4.6 16.8002 4.66745 16.6111 4.79381C16.422 4.92017 16.2746 5.09978 16.1875 5.30991C16.1005 5.52005 16.0777 5.75128 16.1221 5.97435C16.1665 6.19743 16.276 6.40234 16.4368 6.56317C16.5977 6.724 16.8026 6.83353 17.0256 6.8779C17.2487 6.92228 17.4799 6.8995 17.6901 6.81246C17.9002 6.72542 18.0798 6.57802 18.2062 6.38891C18.3326 6.19979 18.4 5.97745 18.4 5.75C18.4 5.445 18.2788 5.15249 18.0632 4.93683C17.8475 4.72116 17.555 4.6 17.25 4.6ZM22.931 7.176C22.9119 6.19324 22.7253 5.22094 22.379 4.301C22.0579 3.46388 21.5643 2.70364 20.9303 2.06965C20.2964 1.43566 19.5361 0.942099 18.699 0.621C17.7791 0.274734 16.8068 0.0880528 15.824 0.0689999C14.7085 -6.42613e-08 14.3405 0 11.5 0C8.6595 0 8.2915 -6.42613e-08 7.176 0.0689999C6.19324 0.0880528 5.22094 0.274734 4.301 0.621C3.46388 0.942099 2.70364 1.43566 2.06965 2.06965C1.43566 2.70364 0.942099 3.46388 0.621 4.301C0.274734 5.22094 0.0880528 6.19324 0.0689999 7.176C-6.42613e-08 8.303 0 8.671 0 11.5C0 14.329 -6.42613e-08 14.697 0.0689999 15.824C0.0880528 16.8068 0.274734 17.7791 0.621 18.699C0.942099 19.5361 1.43566 20.2964 2.06965 20.9303C2.70364 21.5643 3.46388 22.0579 4.301 22.379C5.22094 22.7253 6.19324 22.9119 7.176 22.931C8.326 22.931 8.6595 23 11.5 23C14.3405 23 14.7085 23 15.824 22.931C16.8068 22.9119 17.7791 22.7253 18.699 22.379C19.5361 22.0579 20.2964 21.5643 20.9303 20.9303C21.5643 20.2964 22.0579 19.5361 22.379 18.699C22.7253 17.7791 22.9119 16.8068 22.931 15.824C22.931 14.674 23 14.329 23 11.5C23 8.671 23 8.303 22.931 7.176ZM20.631 15.7205C20.6108 16.4503 20.475 17.1723 20.2285 17.8595C20.0247 18.4027 19.7026 18.8937 19.2855 19.297C18.8846 19.7143 18.3926 20.0331 17.848 20.2285C17.1592 20.4851 16.4324 20.625 15.6975 20.6425C14.6165 20.6425 14.283 20.7 11.4885 20.7C8.694 20.7 8.372 20.7 7.291 20.7C6.55732 20.6811 5.83137 20.5452 5.1405 20.2975C4.59731 20.0937 4.10627 19.7716 3.703 19.3545C3.28573 18.9536 2.96691 18.4616 2.7715 17.917C2.51598 17.2319 2.37607 16.509 2.3575 15.778C2.3575 14.628 2.3575 14.3405 2.3575 11.5575C2.3575 8.7745 2.3575 8.441 2.3575 7.337C2.37732 6.60239 2.51717 5.87597 2.7715 5.1865C2.96994 4.64673 3.28846 4.15911 3.703 3.7605C4.10386 3.34323 4.59587 3.02441 5.1405 2.829C5.82934 2.57243 6.55614 2.43251 7.291 2.415C8.372 2.3 8.7055 2.3 11.5 2.3C14.2945 2.3 14.628 2.3 15.709 2.3C16.4475 2.31878 17.1778 2.45864 17.871 2.714C18.4108 2.91244 18.8984 3.23096 19.297 3.6455C19.7143 4.04636 20.0331 4.53837 20.2285 5.083C20.51 5.78285 20.6695 6.52577 20.7 7.2795C20.7 8.4295 20.7575 8.717 20.7575 11.5C20.7575 14.283 20.7 14.6165 20.7 15.7205H20.631Z" fill="#757575"/>
</svg>
