<svg width="23" height="23" viewBox="0 0 23 23" fill="none" xmlns="http://www.w3.org/2000/svg">
<path d="M0 0V23H23V0H0ZM13.3055 18.2275C12.766 18.2834 12.2207 18.2264 11.7044 18.0602C11.188 17.894 10.7119 17.6221 10.3063 17.262C9.90074 16.9018 9.57452 16.4612 9.34842 15.9681C9.12232 15.4751 9.00128 14.9404 8.993 14.398V9.706H7.544V7.8545C8.33372 7.5484 9.01843 7.0211 9.51611 6.33578C10.0138 5.65046 10.3033 4.83618 10.35 3.9905C10.35 3.96305 10.3609 3.93672 10.3803 3.91731C10.3997 3.8979 10.4261 3.887 10.4535 3.887H12.5465V7.5325H15.4215V9.706H12.558V14.1795C12.5368 14.3674 12.5577 14.5577 12.619 14.7366C12.6804 14.9154 12.7807 15.0784 12.9128 15.2138C13.0448 15.3491 13.2053 15.4535 13.3826 15.5192C13.5599 15.585 13.7496 15.6105 13.938 15.594C14.333 15.5762 14.722 15.4906 15.088 15.341L15.778 17.388C15.0772 17.948 14.2024 18.245 13.3055 18.2275Z" fill="#757575"/>
</svg>
