<svg width="23" height="23" viewBox="0 0 23 23" fill="none" xmlns="http://www.w3.org/2000/svg">
<path d="M23 5.2325C22.9871 4.73636 22.9487 4.24121 22.885 3.749C22.7991 3.31789 22.656 2.90019 22.4595 2.507C22.254 2.08047 21.9779 1.69168 21.643 1.357C21.305 1.02604 20.9169 0.750479 20.493 0.5405C20.0993 0.347811 19.6816 0.208579 19.251 0.1265C18.7635 0.0534743 18.2718 0.0112241 17.779 0H5.2325C4.73636 0.0129219 4.24121 0.0513056 3.749 0.115C3.31789 0.200869 2.90019 0.343969 2.507 0.5405C2.08047 0.746047 1.69168 1.02209 1.357 1.357C1.02604 1.695 0.750479 2.0831 0.5405 2.507C0.347811 2.90072 0.208579 3.31841 0.1265 3.749C0.0534743 4.23652 0.0112241 4.72816 0 5.221C0 5.4395 0 5.75 0 5.842V17.158C0 17.2845 0 17.5605 0 17.7675C0.0129219 18.2636 0.0513056 18.7588 0.115 19.251C0.200869 19.6821 0.343969 20.0998 0.5405 20.493C0.746047 20.9195 1.02209 21.3083 1.357 21.643C1.695 21.974 2.0831 22.2495 2.507 22.4595C2.90072 22.6522 3.31841 22.7914 3.749 22.8735C4.23652 22.9465 4.72816 22.9888 5.221 23H17.7675C18.2636 22.9871 18.7588 22.9487 19.251 22.885C19.6821 22.7991 20.0998 22.656 20.493 22.4595C20.9195 22.254 21.3083 21.9779 21.643 21.643C21.974 21.305 22.2495 20.9169 22.4595 20.493C22.6522 20.0993 22.7914 19.6816 22.8735 19.251C22.9465 18.7635 22.9888 18.2718 23 17.779C23 17.5605 23 17.2845 23 17.158V5.842C23 5.75 23 5.4395 23 5.2325ZM11.7645 19.55C10.3834 19.5432 9.0265 19.1871 7.82 18.515L3.45 19.665L4.6 15.387C3.85838 14.1409 3.46148 12.72 3.45 11.27C3.45458 9.64036 3.94128 8.04852 4.84881 6.69496C5.75634 5.3414 7.04412 4.28666 8.54994 3.66357C10.0558 3.04049 11.7123 2.87692 13.3109 3.19348C14.9095 3.51004 16.3787 4.29256 17.5334 5.44249C18.6881 6.59243 19.4767 8.05834 19.7999 9.65561C20.1232 11.2529 19.9665 12.9101 19.3497 14.4185C18.7328 15.9269 17.6835 17.219 16.3337 18.1322C14.9839 19.0453 13.3941 19.5386 11.7645 19.55ZM11.7645 4.4505C10.5453 4.46445 9.35153 4.80123 8.30479 5.42655C7.25805 6.05187 6.3957 6.94339 5.80554 8.01035C5.21538 9.07731 4.91849 10.2816 4.9451 11.5006C4.9717 12.7196 5.32085 13.9098 5.957 14.95L6.118 15.2145L5.428 17.733L8.05 17.02L8.303 17.1695C9.34901 17.7856 10.5391 18.1149 11.753 18.124C13.583 18.124 15.338 17.397 16.632 16.103C17.926 14.809 18.653 13.054 18.653 11.224C18.653 9.39401 17.926 7.63896 16.632 6.34496C15.338 5.05096 13.583 4.324 11.753 4.324L11.7645 4.4505ZM15.7895 14.2485C15.6389 14.4997 15.4372 14.7166 15.1975 14.8849C14.9578 15.0533 14.6854 15.1695 14.398 15.226C13.9685 15.3045 13.5264 15.2769 13.11 15.1455C12.7183 15.023 12.3342 14.8771 11.96 14.7085C10.5383 13.9951 9.32586 12.9253 8.441 11.6035C7.96017 10.9911 7.66842 10.2517 7.6015 9.476C7.59465 9.15376 7.65561 8.83367 7.78042 8.5365C7.90523 8.23933 8.09111 7.97171 8.326 7.751C8.39519 7.67256 8.48007 7.6095 8.57515 7.56592C8.67024 7.52234 8.77341 7.4992 8.878 7.498H9.2C9.3265 7.498 9.499 7.498 9.66 7.8545C9.821 8.211 10.2465 9.2805 10.304 9.384C10.3323 9.43917 10.347 9.50027 10.347 9.56225C10.347 9.62423 10.3323 9.68533 10.304 9.7405C10.2532 9.86547 10.1833 9.98184 10.097 10.0855C9.9935 10.212 9.8785 10.3615 9.7865 10.4535C9.6945 10.5455 9.5795 10.6605 9.6945 10.8675C10.0074 11.3956 10.3947 11.8758 10.8445 12.2935C11.3343 12.7263 11.8943 13.0724 12.5005 13.317C12.7075 13.4205 12.834 13.409 12.949 13.317C13.064 13.225 13.4665 12.719 13.6045 12.512C13.7425 12.305 13.8805 12.3395 14.0645 12.4085C14.2485 12.4775 15.272 12.972 15.479 13.0755C15.686 13.179 15.8125 13.225 15.87 13.317C15.9199 13.618 15.8922 13.9267 15.7895 14.214V14.2485Z" fill="#757575"/>
</svg>
