<svg width="26" height="17" viewBox="0 0 26 17" fill="none" xmlns="http://www.w3.org/2000/svg">
<path d="M25.994 5.99133C26.0524 4.4183 25.6827 2.85704 24.9192 1.45251C24.4012 0.876203 23.6823 0.487284 22.8878 0.353526C19.6015 0.0760593 16.3016 -0.0376651 13.0022 0.0128398C9.71487 -0.0399574 6.42684 0.0700972 3.15207 0.342536C2.50463 0.452124 1.90546 0.734701 1.4277 1.15579C0.364734 2.06795 0.246627 3.62851 0.12852 4.9473C-0.0428398 7.31843 -0.0428398 9.6976 0.12852 12.0687C0.162688 12.811 0.281461 13.5478 0.482841 14.2667C0.625249 14.8218 0.913369 15.3353 1.3214 15.7613C1.80242 16.2047 2.41553 16.5034 3.0812 16.6185C5.62749 16.911 8.19314 17.0322 10.7582 16.9812C14.8919 17.0362 18.5178 16.9812 22.8051 16.6735C23.4871 16.5654 24.1175 16.2664 24.6122 15.8163C24.9428 15.5085 25.1898 15.1317 25.3326 14.7173C25.755 13.5113 25.9625 12.2491 25.9468 10.9807C25.994 10.3653 25.994 6.65073 25.994 5.99133ZM10.333 11.6401V4.8374L17.3249 8.25525C15.3644 9.26632 12.7778 10.4093 10.333 11.6401Z" fill="#757575"/>
</svg>
